<svg width="28" height="28" viewBox="0 0 28 28" fill="none" xmlns="http://www.w3.org/2000/svg">
<g clip-path="url(#clip0_853_34754)">
<path d="M24.5539 2.0005C24.7752 2.12767 24.8338 2.32292 24.8333 2.56925C24.8286 5.78847 24.8274 9.00786 24.8298 12.2274C24.8298 12.6605 24.6991 12.7907 24.2665 12.7907C20.6431 12.7907 17.0199 12.7897 13.3968 12.7877C13.211 12.7877 13.1014 12.8282 12.9962 13.0054C12.8191 13.3037 12.5329 13.5212 12.1981 13.612C11.8633 13.7027 11.5064 13.6596 11.2029 13.4916C10.6492 13.1942 10.0989 12.8908 9.54671 12.5904C9.47862 12.5534 9.40753 12.5208 9.30339 12.4687V12.7852C9.30339 13.5682 9.30172 14.3509 9.29838 15.1332C9.29838 15.4957 9.1612 15.6409 8.80674 15.6414C7.43494 15.6437 6.06314 15.6437 4.69134 15.6414C4.33337 15.6414 4.2032 15.5032 4.19869 15.1367C4.19869 14.9775 4.19869 14.8188 4.19869 14.6811C3.97139 14.6686 3.76812 14.6811 3.57637 14.6421C3.11577 14.542 2.72776 14.1414 2.72526 13.6763C2.71674 12.6214 2.61962 11.5616 2.81287 10.5132C2.95093 9.78182 3.24442 9.08864 3.6735 8.48051C3.84491 8.22339 4.07571 8.01132 4.34637 7.86222C4.61704 7.71312 4.91962 7.63137 5.22854 7.62388C6.17979 7.58233 7.13104 7.59084 8.08229 7.60586C8.67006 7.61487 9.14368 7.90275 9.5372 8.32781C9.61179 8.40891 9.67938 8.49703 9.79053 8.6282V8.3238C9.79053 6.40328 9.79303 4.48326 9.78702 2.56274C9.78702 2.31241 9.8476 2.12116 10.0739 2L24.5539 2.0005ZM15.1736 7.78259C15.1205 7.8667 15.08 7.93529 15.0354 8.00138C14.3645 8.99768 13.6977 9.9975 13.0173 10.9878C12.8771 11.1916 12.784 11.3578 13.0007 11.562C13.0573 11.6205 13.0954 11.6944 13.1104 11.7743C13.1464 11.9531 13.2501 11.9866 13.4183 11.9861C16.8718 11.9818 20.3254 11.9804 23.7789 11.9821C23.856 11.9821 23.9331 11.9741 24.0037 11.9701V2.81557H10.6116C10.6071 2.90619 10.6001 2.98479 10.6001 3.0629C10.6001 5.28181 10.6016 7.50139 10.6046 9.72164C10.6046 9.8453 10.6406 10.0305 10.7248 10.0821C11.1819 10.362 11.6595 10.6088 12.1386 10.8711L14.5162 7.34451L15.1736 7.78259ZM8.50684 14.8278C8.50684 14.5775 8.50684 14.3442 8.50684 14.1119C8.50985 13.1843 8.51319 12.2566 8.51686 11.3287C8.51686 10.9422 8.64903 10.7595 8.91738 10.7635C9.18574 10.7675 9.30539 10.9442 9.30689 11.3142C9.30082 11.3458 9.30082 11.3783 9.30689 11.4099C9.33744 11.4764 9.36247 11.5666 9.41804 11.5971C10.1425 12.0016 10.8699 12.4062 11.6019 12.7927C11.9734 12.9879 12.3959 12.7071 12.3995 12.286C12.402 12.0096 12.2493 11.8384 12.021 11.7148C11.4552 11.4058 10.886 11.1034 10.3257 10.7845C10.1941 10.7093 10.0815 10.605 9.9963 10.4796C9.6889 10.0165 9.40302 9.5394 9.10162 9.07178C8.84279 8.67126 8.48281 8.4019 7.99317 8.39339C7.13805 8.3777 6.28276 8.37854 5.4273 8.39589C4.97671 8.40591 4.57618 8.56111 4.30683 8.96164C3.94436 9.50485 3.64546 10.0896 3.59339 10.7395C3.5198 11.6617 3.5218 12.5919 3.50528 13.5161C3.50178 13.7424 3.65548 13.8751 3.85123 13.8726C4.04699 13.8701 4.17916 13.7404 4.19268 13.5106C4.20319 13.3339 4.19619 13.1561 4.19669 12.9784C4.19669 12.2845 4.19318 11.5906 4.19969 10.8972C4.19969 10.6363 4.36991 10.4711 4.60022 10.4741C4.83052 10.4771 4.98272 10.6468 4.99223 10.9067C4.99473 10.9713 4.99223 11.0359 4.99223 11.1004V14.8253L8.50684 14.8278Z" fill="#3138E3"/>
<path d="M10.3317 25.102C10.3317 24.6745 10.2976 24.2439 10.3387 23.8203C10.4273 22.9061 10.9284 22.2388 11.6784 21.7391C13.3897 20.5996 15.7653 20.875 17.0615 22.3644C17.4986 22.8651 17.7033 23.4594 17.7123 24.1167C17.7224 24.8427 17.7183 25.5686 17.7123 26.2951C17.7123 26.6641 17.5216 26.8193 17.1551 26.7747C17.0353 26.7602 16.9148 26.7527 16.7941 26.7522C14.8165 26.7522 12.8393 26.7522 10.8623 26.7522C10.3902 26.7522 10.2741 26.634 10.2816 26.1664C10.2851 25.9892 10.2921 25.8115 10.2941 25.6342C10.2961 25.457 10.2941 25.2793 10.2941 25.1015L10.3317 25.102ZM11.1417 25.9426H16.9058C16.9058 25.3053 16.9108 24.6855 16.9058 24.0652C16.9065 23.8304 16.8603 23.5978 16.7698 23.3812C16.6794 23.1645 16.5465 22.9681 16.3791 22.8035C15.0774 21.4978 12.915 21.5193 11.6364 22.819C11.363 23.0969 11.1677 23.4363 11.1517 23.8233C11.1222 24.5223 11.1417 25.2237 11.1417 25.9426Z" fill="#3138E3"/>
<path d="M5.5728 26.7522C4.56415 26.7522 3.55532 26.7522 2.54633 26.7522C2.12328 26.7522 1.99561 26.622 2.00011 26.204C2.01063 25.5346 2.03466 24.8647 2.03316 24.1953C2.03316 23.2481 2.41466 22.4986 3.14962 21.9159C4.64308 20.7318 6.87852 20.7458 8.35646 21.9489C9.05437 22.5181 9.42586 23.2476 9.43187 24.1518C9.43688 24.8617 9.43688 25.5716 9.43187 26.2816C9.43187 26.6696 9.24713 26.8213 8.86462 26.7732C8.76069 26.7597 8.65602 26.7527 8.55121 26.7522C7.55824 26.7512 6.56544 26.7512 5.5728 26.7522ZM8.6198 25.9481C8.6198 25.2607 8.63733 24.5994 8.6138 23.9395C8.59777 23.4994 8.40752 23.1104 8.09211 22.799C6.89954 21.6185 4.99705 21.4888 3.61373 22.5732C3.10757 22.9702 2.84222 23.4924 2.83371 24.1398C2.82603 24.6878 2.81886 25.236 2.81218 25.7844C2.81486 25.8393 2.82105 25.894 2.8307 25.9481H8.6198Z" fill="#3138E3"/>
<path d="M18.6148 25.118C18.6148 24.6905 18.5808 24.2599 18.6218 23.8363C18.7219 22.822 19.3022 22.1211 20.1553 21.6209C21.6913 20.7197 23.6214 20.8669 24.9561 21.9799C25.642 22.5516 25.994 23.2816 25.998 24.1758C26.0003 24.8767 26.0003 25.5786 25.998 26.2815C25.998 26.6685 25.8137 26.8228 25.4327 26.7752C25.3208 26.7617 25.2081 26.7547 25.0953 26.7542C23.118 26.7542 21.1411 26.7542 19.1645 26.7542C18.6639 26.7542 18.5612 26.643 18.5687 26.1354C18.5742 25.7964 18.5687 25.4575 18.5687 25.119L18.6148 25.118ZM25.1884 25.9506C25.1884 25.3053 25.1929 24.6849 25.1884 24.0651C25.1896 23.8302 25.1435 23.5975 25.053 23.3808C24.9624 23.164 24.8292 22.9677 24.6612 22.8035C23.4742 21.6219 21.5712 21.4872 20.1834 22.5727C19.6787 22.9677 19.4073 23.4869 19.4043 24.1382C19.4043 24.5172 19.3878 24.8957 19.3823 25.2747C19.3788 25.4975 19.3823 25.7198 19.3823 25.9506H25.1884Z" fill="#3138E3"/>
<path d="M8.92019 4.89088C8.91998 5.33287 8.78888 5.76489 8.54341 6.13245C8.29794 6.50001 7.94911 6.78664 7.54093 6.95616C7.13274 7.12569 6.68349 7.17052 6.24985 7.08501C5.81621 6.99949 5.41762 6.78746 5.10435 6.47566C4.79109 6.16386 4.57719 5.76626 4.48964 5.33303C4.4021 4.8998 4.44482 4.45034 4.61244 4.04136C4.78005 3.63239 5.06503 3.28222 5.43144 3.03503C5.79784 2.78785 6.22925 2.65472 6.67123 2.65244C7.90435 2.64093 8.91618 3.64825 8.92019 4.89088ZM6.70628 3.45199C6.41886 3.44608 6.13615 3.52562 5.89399 3.68054C5.65182 3.83546 5.4611 4.05879 5.34599 4.32222C5.23087 4.58564 5.19655 4.87732 5.24738 5.16027C5.2982 5.44322 5.43188 5.70472 5.63147 5.91162C5.83106 6.11852 6.08758 6.26151 6.36853 6.32247C6.64947 6.38344 6.94219 6.35962 7.20958 6.25406C7.47698 6.14849 7.70701 5.96591 7.87054 5.72947C8.03407 5.49303 8.12372 5.21337 8.12815 4.92593C8.13392 4.54255 7.98781 4.17245 7.72171 3.8964C7.45561 3.62036 7.09111 3.46078 6.70778 3.45249L6.70628 3.45199Z" fill="#3138E3"/>
<path d="M7.76944 18.3395C7.76835 18.7449 7.64725 19.1409 7.42141 19.4775C7.19557 19.8142 6.87511 20.0764 6.50043 20.2312C6.12575 20.3859 5.71363 20.4263 5.31604 20.3472C4.91845 20.268 4.5532 20.0729 4.26634 19.7865C3.97948 19.5001 3.78386 19.1351 3.70414 18.7376C3.62443 18.3401 3.66418 17.928 3.8184 17.5531C3.97262 17.1782 4.2344 16.8573 4.57072 16.631C4.90705 16.4046 5.30285 16.283 5.70824 16.2813C5.97913 16.2796 6.24766 16.3317 6.49829 16.4345C6.74892 16.5373 6.97667 16.6888 7.16836 16.8802C7.36005 17.0717 7.51188 17.2992 7.61506 17.5497C7.71823 17.8001 7.77071 18.0686 7.76944 18.3395ZM4.4621 18.333C4.45967 18.6665 4.58882 18.9875 4.82154 19.2264C5.05426 19.4653 5.37178 19.6028 5.70523 19.6092C6.38863 19.6172 6.96789 19.0439 6.9739 18.3535C6.97832 18.1866 6.94944 18.0204 6.88893 17.8647C6.82842 17.7091 6.7375 17.567 6.62148 17.4469C6.50547 17.3268 6.36668 17.231 6.21322 17.1651C6.05976 17.0992 5.89471 17.0645 5.72771 17.0631C5.5607 17.0617 5.3951 17.0936 5.24056 17.1569C5.08602 17.2202 4.94564 17.3137 4.82763 17.4319C4.70962 17.5501 4.61634 17.6906 4.55324 17.8452C4.49013 17.9998 4.45847 18.1655 4.4601 18.3325L4.4621 18.333Z" fill="#3138E3"/>
<path d="M20.2308 18.3094C20.234 18.0366 20.2916 17.7673 20.4002 17.5171C20.5087 17.2669 20.666 17.0408 20.8629 16.8521C21.0598 16.6634 21.2923 16.5158 21.5469 16.4179C21.8014 16.3201 22.073 16.2739 22.3456 16.2822C23.447 16.3047 24.3542 17.2535 24.3352 18.3654C24.3331 18.6382 24.2766 18.9077 24.1692 19.1584C24.0617 19.4091 23.9053 19.6359 23.7092 19.8254C23.5132 20.015 23.2812 20.1636 23.0271 20.2625C22.7729 20.3614 22.5016 20.4087 22.2289 20.4016C21.1064 20.3831 20.2113 19.4453 20.2308 18.3094ZM21.0233 18.3519C21.0278 19.0428 21.6046 19.6161 22.289 19.6101C22.5393 19.6099 22.784 19.5354 22.992 19.396C23.2 19.2566 23.3619 19.0586 23.4573 18.8272C23.5526 18.5957 23.5772 18.3411 23.5277 18.0957C23.4783 17.8502 23.3571 17.625 23.1796 17.4485C23.002 17.272 22.776 17.1522 22.5303 17.1042C22.2846 17.0562 22.0302 17.0822 21.7993 17.179C21.5684 17.2757 21.3714 17.4388 21.2332 17.6476C21.0951 17.8564 21.022 18.1016 21.0233 18.3519Z" fill="#3138E3"/>
<path d="M16.0506 18.3522C16.047 18.7586 15.9228 19.1548 15.6938 19.4906C15.4648 19.8264 15.1412 20.0866 14.7642 20.2383C14.3871 20.39 13.9735 20.4263 13.5757 20.3427C13.178 20.2591 12.814 20.0593 12.5299 19.7686C12.2459 19.478 12.0545 19.1095 11.98 18.7099C11.9056 18.3104 11.9514 17.8977 12.1118 17.5242C12.2721 17.1507 12.5397 16.8332 12.8807 16.612C13.2216 16.3908 13.6206 16.2757 14.027 16.2815C14.5697 16.2883 15.0876 16.5102 15.467 16.8984C15.8463 17.2866 16.0562 17.8094 16.0506 18.3522ZM15.2551 18.3487C15.2544 18.1004 15.1802 17.8579 15.0418 17.6517C14.9035 17.4455 14.7072 17.285 14.4777 17.1902C14.2483 17.0954 13.9959 17.0708 13.7524 17.1192C13.5089 17.1677 13.2852 17.2873 13.1095 17.4627C12.9339 17.6382 12.8141 17.8617 12.7653 18.1051C12.7165 18.3486 12.7409 18.601 12.8354 18.8306C12.9299 19.0602 13.0902 19.2567 13.2962 19.3953C13.5022 19.5338 13.7446 19.6083 13.9929 19.6093C14.3273 19.6091 14.648 19.4762 14.8846 19.2399C15.1212 19.0036 15.2544 18.6831 15.2551 18.3487Z" fill="#3138E3"/>
<path d="M22.7485 10.991H21.9785V4.10742H22.7485V10.991Z" fill="#3138E3"/>
<path d="M17.4309 10.9868H16.6699V6.93945H17.4309V10.9868Z" fill="#3138E3"/>
<path d="M19.8281 7.19336H20.6066V10.9838H19.8281V7.19336Z" fill="#3138E3"/>
<path d="M18.2832 8.39453H19.0457V10.9839H18.2832V8.39453Z" fill="#3138E3"/>
</g>
<defs>
<clipPath id="clip0_853_34754">
<rect width="24" height="24.783" fill="white" transform="translate(2 2)"/>
</clipPath>
</defs>
</svg>
