<svg width="52" height="52" viewBox="0 0 52 52" fill="none" xmlns="http://www.w3.org/2000/svg">
<g clip-path="url(#clip0_853_34767)">
<g clip-path="url(#clip1_853_34767)">
<path d="M29.6852 44.2288C27.2948 44.9051 24.7637 44.9051 22.3733 44.2288L21.4356 45.853C20.876 46.8262 20.3191 47.8021 19.7527 48.7712C19.3009 49.5478 18.7194 49.5901 18.1434 48.8831C17.5675 48.1761 16.9846 47.4991 16.44 46.7798C16.2189 46.4877 15.9882 46.429 15.6566 46.4863C14.5496 46.6733 13.4386 46.833 12.333 47.0323C11.9235 47.1046 11.5809 47.0719 11.3407 46.7102C11.1005 46.3485 11.1919 46.01 11.3953 45.6592C12.5978 43.5832 13.7853 41.4989 14.9973 39.4283C15.1679 39.1363 15.157 38.9411 14.9768 38.6585C9.92666 30.7038 14.6479 20.2117 23.9566 18.6857C31.2289 17.4941 38.1517 22.6999 39.013 30.0145C39.3815 33.1224 38.74 36.0051 37.0721 38.6503C36.9905 38.753 36.9452 38.8798 36.9432 39.0109C36.9412 39.142 36.9827 39.2701 37.0612 39.3751C38.2691 41.4225 39.4539 43.4944 40.6536 45.5527C40.872 45.9267 41.0222 46.2966 40.7355 46.6911C40.4489 47.0855 40.0913 47.0473 39.6777 46.9763C38.6063 46.788 37.5253 46.6447 36.4538 46.4577C36.3009 46.4167 36.139 46.4257 35.9916 46.4834C35.8442 46.5411 35.7192 46.6445 35.6348 46.7784C35.0889 47.4977 34.5074 48.187 33.9355 48.8845C33.3814 49.5669 32.7958 49.5205 32.3577 48.7726C31.5155 47.3339 30.6816 45.8899 29.8421 44.4485C29.7985 44.3775 29.7452 44.3134 29.6852 44.2288ZM26.0122 20.1776C23.7436 20.1776 21.5261 20.8506 19.6401 22.1114C17.7542 23.3721 16.2847 25.1641 15.4176 27.2604C14.5504 29.3566 14.3247 31.663 14.7688 33.8877C15.213 36.1123 16.3071 38.1552 17.9128 39.7578C19.5184 41.3604 21.5633 42.4506 23.7888 42.8905C26.0143 43.3304 28.3203 43.1003 30.4149 42.2291C32.5095 41.358 34.2987 39.8851 35.5559 37.9967C36.8131 36.1084 37.4818 33.8896 37.4775 31.621C37.4787 30.1161 37.1829 28.6256 36.6069 27.2353C36.0309 25.8449 35.1861 24.5819 34.1209 23.5187C33.0557 22.4556 31.7911 21.6132 30.3996 21.0398C29.0081 20.4665 27.5172 20.1734 26.0122 20.1776ZM18.8123 47.1319C19.4947 45.9445 20.1376 44.828 20.805 43.6691C19.098 42.9052 17.5631 41.8039 16.2926 40.4316L13.5628 45.1883C14.4841 45.0395 15.2908 44.9276 16.0893 44.7788C16.3039 44.7231 16.5306 44.735 16.7382 44.8129C16.9459 44.8909 17.1244 45.031 17.2494 45.2142C17.7367 45.8394 18.2595 46.4481 18.8123 47.1319ZM31.2657 43.6528L33.2735 47.1101C33.7949 46.47 34.3054 45.8817 34.775 45.2593C35.123 44.7925 35.5202 44.6396 36.0976 44.7624C36.8619 44.9235 37.6426 45.0054 38.5203 45.1378L35.7904 40.3892C34.5243 41.7785 32.9836 42.8898 31.2657 43.6528Z" fill="#3138E3" stroke="#3138E3" stroke-width="0.392413" stroke-miterlimit="10"/>
<path d="M25.9601 3.28711C26.3014 3.61332 26.6167 3.80032 26.7654 4.0774C27.2322 4.94412 27.6458 5.84087 28.0635 6.73352C28.1055 6.85074 28.1819 6.95254 28.2827 7.0256C28.3836 7.09866 28.5041 7.13958 28.6285 7.143C29.5758 7.244 30.5162 7.39824 31.4607 7.51835C31.8702 7.57158 32.2251 7.6876 32.3657 8.13393C32.5022 8.55842 32.2906 8.84914 32.004 9.12076C31.3379 9.75408 30.6868 10.4038 30.0099 11.0248C29.7451 11.2664 29.6454 11.4862 29.73 11.8615C29.9389 12.7897 30.0808 13.7328 30.2583 14.6691C30.3306 15.0513 30.2719 15.3803 29.9375 15.6246C29.6031 15.8689 29.3069 15.7979 28.9821 15.6246C28.1017 15.1469 27.22 14.6691 26.3218 14.2201C26.2205 14.1776 26.1117 14.1556 26.0018 14.1556C25.8919 14.1556 25.783 14.1776 25.6817 14.2201C24.8163 14.6541 23.9687 15.125 23.1184 15.585C22.7703 15.7761 22.4277 15.8867 22.0701 15.626C21.7125 15.3653 21.6934 15.0268 21.7739 14.6241C21.9609 13.6905 22.1056 12.7487 22.2885 11.8137C22.3253 11.685 22.3235 11.5484 22.2832 11.4207C22.2429 11.293 22.166 11.1801 22.0619 11.0958C21.359 10.4529 20.6779 9.78411 19.9859 9.13032C19.702 8.85734 19.4686 8.58435 19.6078 8.15031C19.747 7.71626 20.0924 7.58387 20.51 7.53064C21.4655 7.40916 22.4332 7.28086 23.3886 7.12116C23.4874 7.09832 23.5806 7.05571 23.6624 6.99589C23.7443 6.93607 23.8132 6.86028 23.865 6.77311C24.325 5.88182 24.729 4.96186 25.1985 4.07603C25.3391 3.80578 25.6298 3.61742 25.9601 3.28711ZM28.3474 13.4353C28.2204 12.7105 28.1317 12.0703 27.9898 11.4466C27.936 11.2503 27.9405 11.0426 28.0025 10.8488C28.0645 10.6549 28.1815 10.4833 28.3392 10.3546C28.8101 9.91924 29.2673 9.46882 29.7983 8.9597C29.0721 8.85324 28.4416 8.73312 27.8069 8.67443C27.3196 8.63076 27.0398 8.38917 26.8514 7.96331C26.5962 7.39824 26.3055 6.84681 25.9902 6.18892C25.694 6.79631 25.4114 7.29587 25.2067 7.82682C24.9815 8.40691 24.5939 8.67853 23.9783 8.72767C23.4078 8.77407 22.8399 8.87371 22.3035 8.94469C22.7403 9.41012 23.1498 9.88238 23.6002 10.3096C23.951 10.6467 24.1039 10.9921 23.9851 11.4889C23.8391 12.0949 23.7626 12.7173 23.6398 13.4271C24.2745 13.0913 24.8464 12.8101 25.3964 12.4921C25.5748 12.3763 25.7829 12.3146 25.9956 12.3146C26.2083 12.3146 26.4165 12.3763 26.5948 12.4921C27.1422 12.806 27.7018 13.0899 28.3474 13.4353Z" fill="#3138E3" stroke="#3138E3" stroke-width="0.392413" stroke-miterlimit="10"/>
<path d="M40.046 23.1421C39.3977 23.1421 39.0483 22.7081 39.1452 22.1334C39.3063 21.178 39.4714 20.2225 39.6625 19.2671C39.71 19.1068 39.7079 18.9359 39.6565 18.7769C39.6051 18.6178 39.5068 18.478 39.3745 18.3758C38.6921 17.7657 38.0423 17.1092 37.3735 16.4786C37.0842 16.2056 36.8794 15.9203 37.0159 15.4931C37.1524 15.0659 37.4909 14.9471 37.8799 14.898C38.8067 14.7738 39.7335 14.6414 40.6616 14.5281C40.8121 14.5226 40.9575 14.4722 41.0791 14.3835C41.2007 14.2947 41.293 14.1716 41.3441 14.0299C41.7071 13.211 42.1275 12.407 42.5084 11.5908C42.6899 11.2005 42.8892 10.8592 43.3846 10.8633C43.8801 10.8674 44.0671 11.2277 44.2527 11.6086C44.639 12.4275 45.0512 13.2246 45.4197 14.0463C45.574 14.3889 45.7951 14.5063 46.1554 14.5459C47.1013 14.6469 48.0431 14.8025 48.9876 14.9212C49.363 14.969 49.625 15.1328 49.7492 15.4972C49.8734 15.8616 49.7233 16.1578 49.4612 16.409C48.7378 17.1064 48.0021 17.7916 47.3006 18.5096C47.2302 18.5936 47.1773 18.6909 47.1452 18.7957C47.1131 18.9005 47.1023 19.0107 47.1136 19.1197C47.2637 20.0942 47.4548 21.062 47.6404 22.0311C47.7128 22.4132 47.6814 22.8091 47.3142 22.9619C47.0109 23.0801 46.6744 23.0801 46.3711 22.9619C45.5098 22.5606 44.6786 22.0911 43.8514 21.6189C43.5389 21.4414 43.2945 21.4196 42.9711 21.6079C42.163 22.0788 41.3332 22.5088 40.506 22.9469C40.357 23.0217 40.2034 23.0869 40.046 23.1421ZM39.7075 16.3175C40.1457 16.7911 40.5401 17.2566 40.9783 17.6824C41.3454 18.0332 41.4983 18.3963 41.3727 18.9109C41.2281 19.5101 41.1557 20.127 41.037 20.8136C41.6266 20.501 42.1548 20.2608 42.6394 19.9509C43.1662 19.6152 43.6344 19.6356 44.1544 19.9605C44.6403 20.2649 45.1658 20.5064 45.7459 20.8163C45.6217 20.1024 45.5357 19.4637 45.3952 18.8385C45.2873 18.3622 45.4388 18.0264 45.7719 17.7002C46.2141 17.2634 46.6181 16.7884 47.0508 16.3175C46.5048 16.2411 45.9493 16.1264 45.3815 16.0923C44.7796 16.0568 44.4124 15.7852 44.1845 15.2351C43.9565 14.6851 43.6835 14.1801 43.3874 13.5686C43.053 14.251 42.7486 14.838 42.4783 15.4372C42.4033 15.6184 42.2785 15.7747 42.1184 15.888C41.9582 16.0013 41.7693 16.0669 41.5734 16.0773C40.9496 16.151 40.3286 16.2397 39.7075 16.3216V16.3175Z" fill="#3138E3" stroke="#3138E3" stroke-width="0.392413" stroke-miterlimit="10"/>
<path d="M12.8995 22.2967C12.9173 22.9996 12.2648 23.3818 11.637 23.0583C10.7771 22.6133 9.92128 22.1575 9.08049 21.6784C8.76656 21.4996 8.52361 21.4764 8.20012 21.6647C7.38117 22.1411 6.5281 22.5724 5.69414 23.0296C5.35427 23.2166 5.01987 23.2794 4.68956 23.0419C4.35925 22.8044 4.31557 22.47 4.39064 22.0865C4.57764 21.1188 4.76463 20.1497 4.90522 19.1751C4.91185 19.0574 4.89486 18.9394 4.85525 18.8283C4.81563 18.7172 4.7542 18.6152 4.67455 18.5282C3.99209 17.8348 3.28506 17.1742 2.58213 16.5067C2.30915 16.246 2.11533 15.9689 2.24773 15.5636C2.38012 15.1582 2.67221 15.0176 3.05439 14.9671C3.98117 14.8456 4.90658 14.7064 5.83472 14.5958C6.20189 14.5522 6.43665 14.4239 6.59635 14.0499C6.96897 13.1941 7.40301 12.3642 7.8002 11.5193C7.96536 11.1699 8.18511 10.9174 8.60004 10.916C9.01498 10.9147 9.24292 11.1699 9.40807 11.5139C9.8271 12.3874 10.2625 13.2528 10.6652 14.1331C10.7167 14.2655 10.8063 14.3795 10.9227 14.4609C11.0391 14.5423 11.177 14.5874 11.319 14.5904C12.2744 14.7009 13.2394 14.8511 14.2003 14.9712C14.5729 15.0176 14.9155 15.1677 14.9428 15.5417C14.9671 15.8655 14.8697 16.1867 14.6698 16.4426C14.0119 17.1537 13.3049 17.817 12.5829 18.4667C12.4659 18.5618 12.3798 18.6895 12.3356 18.8337C12.2913 18.9778 12.2909 19.1318 12.3345 19.2761C12.5365 20.2985 12.718 21.3194 12.8995 22.2967ZM10.96 20.8663C10.8494 20.2207 10.7962 19.6474 10.6461 19.1001C10.4741 18.4722 10.657 18.0327 11.1279 17.615C11.5496 17.2424 11.9018 16.7961 12.2921 16.3689C11.7707 16.2952 11.2534 16.1709 10.732 16.16C9.99226 16.1464 9.58688 15.7847 9.333 15.1254C9.14328 14.6354 8.88122 14.17 8.6096 13.6158C8.2943 14.2696 8.01995 14.7965 7.79065 15.3411C7.70778 15.5738 7.55579 15.7756 7.35502 15.9195C7.15426 16.0635 6.91431 16.1426 6.66732 16.1464C6.0845 16.1901 5.50714 16.302 5.00213 16.373C5.4348 16.8561 5.86202 17.3571 6.31654 17.832C6.59771 18.1269 6.72601 18.4285 6.63456 18.8421C6.49807 19.4877 6.40253 20.1401 6.27696 20.8663C6.92393 20.5209 7.50538 20.222 8.0841 19.8972C8.24204 19.7969 8.42525 19.7436 8.61233 19.7436C8.7994 19.7436 8.98262 19.7969 9.14055 19.8972C9.70836 20.2138 10.2953 20.5127 10.96 20.8663Z" fill="#3138E3" stroke="#3138E3" stroke-width="0.392413" stroke-miterlimit="10"/>
<path d="M34.0787 31.6454C34.0762 33.2376 33.6019 34.7933 32.7155 36.116C31.8292 37.4387 30.5706 38.469 29.0989 39.0766C27.6272 39.6842 26.0084 39.842 24.4471 39.5298C22.8858 39.2177 21.452 38.4498 20.327 37.3231C19.202 36.1964 18.4362 34.7614 18.1265 33.1996C17.8168 31.6378 17.977 30.0193 18.5868 28.5485C19.1967 27.0777 20.2289 25.8207 21.5529 24.9364C22.877 24.0521 24.4334 23.5801 26.0257 23.5801C28.1607 23.5894 30.2054 24.4426 31.714 25.9534C33.2225 27.4643 34.0725 29.5103 34.0787 31.6454ZM26.0175 25.2207C24.748 25.2223 23.5075 25.6006 22.4531 26.3076C21.3987 27.0145 20.5778 28.0185 20.0942 29.1922C19.6107 30.366 19.4862 31.6569 19.7367 32.9014C19.9871 34.1459 20.6012 35.2882 21.5011 36.1835C22.4011 37.0789 23.5465 37.6871 24.7923 37.9312C26.0381 38.1753 27.3283 38.0443 28.4996 37.5547C29.6709 37.0652 30.6706 36.2391 31.3721 35.1811C32.0737 34.1231 32.4456 32.8807 32.4408 31.6112C32.4289 29.9144 31.7473 28.2908 30.5443 27.094C29.3414 25.8972 27.7144 25.2239 26.0175 25.2207Z" fill="#3138E3" stroke="#3138E3" stroke-width="0.392413" stroke-miterlimit="10"/>
<path d="M24.7199 33.2709L28.2222 29.7467C28.337 29.6211 28.4606 29.5039 28.5921 29.3959C28.9579 29.1229 29.3346 29.1379 29.6554 29.4532C29.9761 29.7685 29.998 30.1521 29.7305 30.5151C29.5688 30.7126 29.3927 30.8978 29.2036 31.0693C27.8987 32.3842 26.5907 33.6977 25.2795 35.0098C24.6666 35.6213 24.1589 35.5558 23.7248 34.816C23.2526 34.008 22.7858 33.1977 22.3244 32.3851C22.005 31.82 22.0937 31.3559 22.5551 31.1089C22.9932 30.8727 23.415 31.0338 23.733 31.5716C24.051 32.1094 24.3636 32.6553 24.7199 33.2709Z" fill="#3138E3" stroke="#3138E3" stroke-width="0.392413" stroke-miterlimit="10"/>
</g>
</g>
<defs>
<clipPath id="clip0_853_34767">
<rect width="52" height="52" fill="white"/>
</clipPath>
<clipPath id="clip1_853_34767">
<rect width="48" height="46.59" fill="white" transform="translate(2 3)"/>
</clipPath>
</defs>
</svg>
