<svg width="151" height="69" viewBox="0 0 151 69" fill="none" xmlns="http://www.w3.org/2000/svg">
<g clip-path="url(#clip0_3022_19768)">
<path d="M125.706 41.1333V45.2497C125.534 45.2497 125.405 45.2736 125.274 45.2736C123.333 45.2736 121.391 45.2736 119.452 45.2736C119.109 45.2736 119.025 45.171 119.025 44.8371C119.035 31.521 119.035 18.2049 119.025 4.88877V4.52148H126.312V17.9227L126.412 17.9608C126.501 17.8864 126.585 17.8068 126.664 17.7223C128.349 15.831 130.601 14.5358 133.082 14.0304C136.09 13.4894 139.188 13.7992 142.028 14.9247C145.274 16.2842 147.6 18.6119 149.145 21.741C150.54 24.596 151.171 27.7636 150.977 30.9351C150.796 34.6318 149.675 38.0018 147.399 40.952C145.369 43.6167 142.407 45.4159 139.107 45.9891C136.431 46.4899 133.788 46.3993 131.217 45.4214C129.181 44.6611 127.417 43.312 126.149 41.5459C126.063 41.4266 125.973 41.3074 125.877 41.2C125.858 41.1786 125.815 41.1762 125.706 41.1333ZM143.727 29.7164C143.729 28.7073 143.568 27.7046 143.25 26.7471C142.484 24.3001 141.022 22.4279 138.632 21.3785C136.808 20.5768 134.768 20.4088 132.837 20.9015C129.779 21.6313 127.602 23.4439 126.445 26.3869C125.713 28.2568 125.687 30.191 126.145 32.13C126.746 34.6867 128.086 36.7473 130.359 38.1258C132.043 39.1403 134.016 39.5657 135.968 39.335C138.263 39.0965 140.175 38.1425 141.635 36.3633C143.149 34.5412 143.731 32.3804 143.727 29.7164Z" fill="#3137E3"/>
<path d="M106.285 19.038C106.285 18.883 106.316 18.7303 106.316 18.5753C106.316 17.4098 106.316 16.2444 106.316 15.0789C106.316 14.8738 106.331 14.7307 106.605 14.7331C108.668 14.7331 110.731 14.7331 112.806 14.7331C112.861 14.7378 112.916 14.7466 112.97 14.7593C112.97 14.8738 112.999 14.9811 112.999 15.0885C112.999 24.9464 112.999 34.8122 112.999 44.686C112.999 45.2656 112.999 45.2656 112.42 45.2656C110.54 45.2656 108.661 45.2656 106.784 45.2656C106.426 45.2656 106.307 45.1582 106.326 44.8076C106.345 43.7392 106.326 42.6612 106.326 41.6046C106.326 41.452 106.302 41.3017 106.278 41.0394C106.083 41.2779 105.954 41.4067 105.837 41.5545C104.019 43.9301 101.369 45.5294 98.4198 46.0311C94.4416 46.7466 90.764 45.8833 87.4632 43.5627C84.3222 41.3518 82.3999 38.2967 81.5007 34.5809C80.9495 32.2498 80.8523 29.8343 81.2145 27.4665C81.7893 23.5098 83.4469 20.1088 86.4472 17.4234C88.5611 15.509 91.2069 14.2822 94.0338 13.9055C96.0641 13.5881 98.1396 13.7291 100.108 14.3181C102.509 15.0693 104.572 16.6349 105.942 18.7446C106.021 18.8567 106.114 18.9593 106.2 19.0666L106.285 19.038ZM106.18 30.0089C106.114 29.3506 106.083 28.69 105.973 28.0389C105.591 25.7684 104.585 23.8366 102.737 22.4151C100.802 20.9245 98.5843 20.4475 96.185 20.7313C93.056 21.101 90.7711 22.7156 89.3592 25.5013C88.3698 27.4643 88.0355 29.6927 88.4052 31.8596C88.8703 34.8146 90.3609 37.0589 93.0536 38.4207C94.6777 39.225 96.5005 39.5407 98.3005 39.3294C100.616 39.0909 102.567 38.1774 104.051 36.3672C105.568 34.5403 106.128 32.3581 106.18 30.0089Z" fill="#3137E3"/>
<path d="M56.654 45.2533H49.418V14.771H56.0721V17.6329C56.1736 17.5602 56.27 17.4805 56.3606 17.3945C57.1515 16.4114 58.1292 15.5946 59.2373 14.9913C60.3453 14.3879 61.5619 14.0099 62.8168 13.879C66.1557 13.4759 69.2753 14.0364 71.9703 16.1948C73.8592 17.7093 75.0374 19.6983 75.7481 21.9855C76.2775 23.7722 76.5308 25.6293 76.4994 27.4924C76.4898 33.2498 76.4898 39.0055 76.4994 44.7597C76.4994 45.2724 76.4994 45.2724 75.9723 45.2724H69.2133V44.762C69.2133 39.4102 69.2133 34.0599 69.2133 28.7112C69.2429 27.163 68.9707 25.6238 68.4119 24.1797C67.4842 21.9092 65.6382 20.669 63.1864 20.6499C61.7674 20.6499 60.4294 20.8884 59.2679 21.7661C58.0063 22.7201 57.3242 24.0414 57.038 25.5415C56.8082 26.7062 56.6837 27.8891 56.6659 29.0761C56.6254 34.2419 56.6492 39.4078 56.6492 44.5784L56.654 45.2533Z" fill="#3137E3"/>
<path d="M36.0629 45.2383V44.7613C36.0629 39.4333 36.0629 34.1068 36.0629 28.782C36.0953 27.1979 35.8174 25.6229 35.2448 24.1456C34.3481 21.9466 32.4759 20.685 30.1028 20.6564C28.5764 20.6397 27.1502 20.9211 25.9363 21.9156C24.7939 22.8529 24.169 24.1146 23.89 25.5217C23.6613 26.6206 23.536 27.7384 23.5155 28.8607C23.4774 34.1625 23.4988 39.4667 23.4988 44.7685C23.4988 45.2669 23.4988 45.2669 23.0004 45.2669H16.2676V14.7607H22.8978V17.6227C23.0013 17.5514 23.0986 17.4716 23.1888 17.3842C24.7512 15.4542 27.0016 14.2059 29.466 13.9021C32.3519 13.499 35.1137 13.852 37.6537 15.376C39.8908 16.7188 41.3623 18.6959 42.2805 21.1C42.9762 22.9369 43.3286 24.8859 43.3204 26.8501C43.3204 32.8507 43.3243 38.8521 43.3323 44.8543C43.3323 45.0928 43.318 45.2645 42.9889 45.2622C40.778 45.2478 38.5671 45.2622 36.3562 45.2622C36.2728 45.2741 36.1893 45.2526 36.0629 45.2383Z" fill="#3137E3"/>
<path d="M2.98828 14.7461H10.2291V44.7658C10.2291 45.2738 10.2291 45.2738 9.70437 45.2738H2.98828V14.7461Z" fill="#3137E3"/>
<path d="M2.62891 68.3851V53.8773C2.72313 53.8662 2.81785 53.8598 2.91272 53.8583C4.10521 53.8583 5.2977 53.8344 6.49018 53.8583C7.50994 53.863 8.51507 54.1012 9.42848 54.5547C11.575 55.6541 11.7801 59.1362 9.73375 60.3358C9.67855 60.3727 9.62596 60.4134 9.57634 60.4575C9.73852 60.5386 9.87208 60.6077 10.008 60.6721C11.5296 61.3876 12.1545 62.9498 12.0281 64.4285C11.8325 66.7133 10.2775 67.8581 8.27176 68.2254C7.75398 68.3216 7.22903 68.3743 6.70245 68.3828C5.36209 68.4066 4.01219 68.3851 2.62891 68.3851ZM5.2977 65.9095C6.25169 65.8356 7.17467 65.8428 8.06427 65.6711C8.95387 65.4993 9.40701 64.8363 9.3927 63.9109C9.37839 63.0213 8.8847 62.3035 8.0118 62.1651C7.1389 62.0268 6.22068 62.0435 5.2977 61.991V65.9095ZM5.27623 57.9461C5.27623 58.373 5.25954 58.8023 5.27623 59.2292C5.27623 59.3222 5.43602 59.482 5.51473 59.482C6.05197 59.4996 6.58979 59.4813 7.12459 59.4272C7.93309 59.3246 8.45063 58.7737 8.48402 58.0749C8.52457 57.1901 8.16921 56.6439 7.29154 56.4937C6.68615 56.4128 6.07501 56.3833 5.46464 56.4054C5.39309 56.4054 5.2643 56.5676 5.25953 56.6606C5.26907 57.0875 5.281 57.5168 5.281 57.9461H5.27623Z" fill="#3137E3"/>
<path d="M61.8351 64.114H53.316C53.3795 64.4593 53.5116 64.7884 53.7045 65.0817C53.8975 65.375 54.1474 65.6267 54.4393 65.8216C55.6008 66.6325 57.38 66.4966 58.4461 65.5593C58.6098 65.4255 58.8121 65.3477 59.0233 65.3375C59.8437 65.3136 60.6641 65.3375 61.4893 65.3375C61.1912 67.2956 57.9476 69.0938 55.5579 68.7599C54.7955 68.6713 54.059 68.429 53.3929 68.0476C52.7268 67.6662 52.145 67.1537 51.6827 66.5411C51.2203 65.9285 50.887 65.2285 50.7029 64.4833C50.5187 63.7382 50.4876 62.9635 50.6114 62.206C51.2459 58.5618 54.2175 56.5369 57.6757 57.3192C61.0409 58.08 62.3336 61.3665 61.8351 64.114ZM59.2117 61.8197C59.1282 60.8275 57.9619 59.6302 56.531 59.6088C54.9521 59.5825 53.5211 60.5294 53.3136 61.8197H59.2117Z" fill="#3137E3"/>
<path d="M1.65257e-05 6.59408C-0.00181392 6.02885 0.148447 5.47355 0.435045 4.98637C0.721643 4.4992 1.13402 4.0981 1.62896 3.82511C3.57669 2.68828 5.53237 1.56733 7.496 0.462296C7.92508 0.202458 8.40847 0.0454464 8.90833 0.00354752C9.4082 -0.0383514 9.91099 0.0360019 10.3773 0.220785C10.8437 0.405568 11.2609 0.695767 11.5964 1.06867C11.932 1.44158 12.1766 1.88707 12.3113 2.37028C12.5104 3.0462 12.4814 3.76888 12.2288 4.42669C11.9762 5.0845 11.514 5.64083 10.9137 6.00975C8.88644 7.20224 6.85921 8.39473 4.78905 9.51567C4.33677 9.75971 3.83311 9.89313 3.31932 9.90498C2.80554 9.91684 2.29626 9.8068 1.8332 9.58388C1.37015 9.36096 0.96649 9.0315 0.65531 8.62251C0.34413 8.21351 0.134279 7.7366 0.042948 7.23086C0.0161115 7.01963 0.00177477 6.807 1.65257e-05 6.59408Z" fill="#3137E3"/>
<path d="M84.9111 64.3883H87.6443C87.7946 65.3614 88.305 65.9791 89.29 66.1723C89.6988 66.2659 90.1269 66.2252 90.5107 66.0561C90.8945 65.8871 91.2135 65.5987 91.4203 65.2338C91.6271 64.8689 91.7107 64.4471 91.6586 64.031C91.6065 63.6148 91.4215 63.2266 91.1312 62.9239C90.7042 62.4469 90.1414 62.2085 89.569 61.9914C88.7856 61.7161 88.0222 61.387 87.2842 61.0064C85.8532 60.1932 85.2689 58.8886 85.4716 57.2859C85.7101 55.5019 86.6951 54.2689 88.4457 53.7919C90.0245 53.3578 91.5199 53.5724 92.7386 54.7959C93.5137 55.5734 93.8596 56.5489 93.9311 57.6579C93.8292 57.6746 93.7265 57.6857 93.6234 57.6913C93.0964 57.6913 92.5645 57.6579 92.0398 57.7032C91.5151 57.7485 91.2075 57.6317 91.0548 57.033C90.8784 56.3366 90.0031 56.0075 89.2256 56.2102C88.8634 56.293 88.5448 56.507 88.3312 56.8109C88.1176 57.1148 88.0241 57.4871 88.0688 57.8559C88.0929 58.158 88.2038 58.4466 88.3884 58.687C88.5729 58.9274 88.8231 59.1092 89.1087 59.2105C89.7836 59.492 90.492 59.6875 91.1765 59.9642C92.5288 60.4913 93.6425 61.2831 94.0909 62.7546C94.878 65.3518 93.4279 68.19 90.5134 68.686C88.4051 69.0462 86.3445 68.1399 85.4096 66.4346C85.0673 65.8078 84.8955 65.1023 84.9111 64.3883Z" fill="#3137E3"/>
<path d="M111.19 68.3696H108.662V53.8594H111.19V58.2978C111.256 58.2752 111.318 58.2448 111.376 58.2072C113.012 56.4495 117.086 56.7142 118.03 60.1152C118.207 60.7525 118.302 61.4096 118.314 62.0708C118.35 64.0456 118.314 66.0227 118.333 67.9999C118.333 68.3004 118.252 68.4077 117.942 68.3982C117.329 68.3767 116.714 68.3767 116.101 68.3982C115.807 68.3982 115.726 68.3123 115.726 68.0238C115.726 66.0585 115.726 64.0957 115.712 62.1329C115.704 61.7659 115.639 61.4024 115.521 61.0548C115.197 60.046 114.496 59.5857 113.399 59.6095C112.378 59.6334 111.679 60.1438 111.417 61.1431C111.285 61.627 111.214 62.1252 111.204 62.6265C111.181 64.3819 111.204 66.1372 111.204 67.8926L111.19 68.3696Z" fill="#3137E3"/>
<path d="M132.626 62.9588C132.65 59.6532 135.194 57.0989 138.469 57.1633C141.841 57.2325 144.193 59.8154 144.174 63.0304C144.148 66.4027 141.474 68.8497 138.156 68.7686C136.657 68.7182 135.238 68.0811 134.203 66.9945C133.169 65.908 132.602 64.4588 132.626 62.9588ZM135.178 62.9803C135.197 65.6872 137.749 67.0514 139.897 65.983C140.88 65.506 141.786 64.2348 141.586 62.4699C141.539 62.0135 141.395 61.5725 141.163 61.1765C140.932 60.7806 140.618 60.439 140.243 60.1747C139.868 59.9105 139.44 59.7297 138.99 59.6447C138.539 59.5597 138.075 59.5723 137.629 59.6818C136.151 60.0444 135.173 61.3609 135.178 62.9803Z" fill="#3137E3"/>
<path d="M119.972 62.9461C119.958 62.1834 120.098 61.4257 120.384 60.7184C120.669 60.011 121.095 59.3684 121.634 58.8288C122.173 58.2893 122.816 57.8639 123.523 57.578C124.23 57.2922 124.988 57.1517 125.75 57.1649C129.008 57.1458 131.536 59.7431 131.513 63.0511C131.471 64.5631 130.838 65.9984 129.749 67.0483C128.66 68.0983 127.203 68.6788 125.691 68.665C124.178 68.6513 122.731 68.0444 121.662 66.9748C120.592 65.9053 119.985 64.4586 119.972 62.9461ZM125.738 59.6071C123.859 59.6071 122.521 61.0381 122.521 63.0153C122.521 64.9233 123.931 66.3662 125.75 66.3542C127.57 66.3423 128.968 64.8684 128.968 62.9843C128.968 61.0572 127.58 59.6071 125.738 59.6095V59.6071Z" fill="#3137E3"/>
<path d="M13.8092 57.5273C14.6153 57.5273 15.3737 57.5273 16.1321 57.5273C16.4136 57.5273 16.3706 57.7301 16.3706 57.8922C16.3706 59.5736 16.3706 61.2551 16.3706 62.9365C16.3717 63.4625 16.4171 63.9874 16.5066 64.5058C16.8262 66.2778 18.3311 66.6236 19.5593 66.1753C20.3034 65.9082 20.6469 65.2761 20.7828 64.5487C20.8797 64.0191 20.9292 63.482 20.9307 62.9436C20.9498 61.298 20.9307 59.6524 20.9307 58.0091V57.5512H23.4492V68.3933H22.0731C21.7917 68.3933 21.4411 68.472 21.2503 68.3361C21.1048 68.2311 21.1644 67.8447 21.131 67.5824C21.1161 67.5316 21.0969 67.4821 21.0738 67.4345C21.0267 67.4585 20.9826 67.4882 20.9426 67.5228C19.8932 68.701 18.5576 68.9538 17.0861 68.6604C15.4739 68.3551 14.3052 67.146 14.0238 65.4431C13.8971 64.6821 13.8262 63.9129 13.8115 63.1416C13.7829 61.4005 13.8115 59.6571 13.8115 57.9137L13.8092 57.5273Z" fill="#3137E3"/>
<path d="M39.1758 57.548H41.4725V58.5378C41.5567 58.4838 41.6365 58.4232 41.711 58.3565C43.359 56.4223 47.4564 56.7228 48.4605 59.9545C48.6382 60.5128 48.7377 61.0931 48.7562 61.6788C48.792 63.7991 48.7705 65.9217 48.7825 68.0443C48.7825 68.3186 48.6966 68.4068 48.4223 68.3997C47.7068 68.3854 46.9914 68.3997 46.2234 68.3997V67.9489C46.2234 66.0982 46.2377 64.245 46.2234 62.3943C46.215 61.9424 46.1411 61.4941 46.004 61.0635C45.6605 59.9855 44.976 59.5705 43.7454 59.6325C43.2936 59.6472 42.8604 59.8165 42.5184 60.1121C42.1763 60.4077 41.9461 60.8117 41.866 61.2567C41.7653 61.6852 41.7118 62.1235 41.7062 62.5636C41.6872 64.3428 41.7062 66.122 41.7062 67.9012V68.3782H39.1758V57.548Z" fill="#3137E3"/>
<path d="M106.843 61.0945C105.941 61.0945 105.047 61.0945 104.153 61.0945C104.098 61.0813 104.046 61.0572 104 61.0236C103.955 60.99 103.917 60.9476 103.888 60.899C103.106 59.7065 101.935 59.4465 100.625 59.6802C100.009 59.7842 99.4392 60.0766 98.9954 60.5174C98.5517 60.9581 98.2554 61.5255 98.1473 62.1415C97.9088 63.5439 98.195 64.7793 99.3565 65.6999C100.659 66.7302 102.97 66.5561 103.888 65.1227C103.923 65.0757 103.966 65.0361 104.017 65.0066C104.067 64.9771 104.123 64.9582 104.181 64.951C105.016 64.9391 105.851 64.951 106.686 64.951C106.731 64.9584 106.775 64.9729 106.817 64.994C106.213 67.0737 104.131 69.0484 100.854 68.7527C97.2625 68.4259 95.3259 65.4829 95.519 62.5231C95.6812 60.0451 97.4437 57.3382 101.124 57.1736C104.181 57.0305 106.302 58.9266 106.843 61.0945Z" fill="#3137E3"/>
<path d="M32.6102 60.4455C31.7421 60.4455 30.9718 60.4455 30.2014 60.4336C30.1108 60.4336 29.9868 60.3 29.9391 60.1951C29.7125 59.7181 29.3834 59.5511 28.7466 59.6179C28.5682 59.6323 28.3989 59.7028 28.2631 59.8193C28.1272 59.9359 28.0318 60.0925 27.9906 60.2666C27.8785 60.7913 28.0287 61.2063 28.5367 61.421C29.1091 61.6595 29.7292 61.7763 30.3111 61.9981C30.8319 62.1723 31.328 62.4128 31.7874 62.7136C32.782 63.4291 32.9799 64.4952 32.8058 65.64C32.4409 67.9868 30.2372 69.1411 27.9238 68.6546C27.1483 68.497 26.4451 68.0917 25.9199 67.4999C25.3947 66.908 25.076 66.1616 25.0117 65.3729C25.0117 65.2775 25.0117 65.1821 25.0117 65.0366C25.8178 65.0366 26.6001 65.0366 27.38 65.0366C27.4539 65.0366 27.5589 65.1773 27.5923 65.2751C27.6478 65.4703 27.743 65.6521 27.8719 65.8089C28.0009 65.9657 28.1608 66.0942 28.3416 66.1864C28.5225 66.2786 28.7204 66.3325 28.923 66.3448C29.1257 66.3571 29.3287 66.3274 29.5193 66.2577C29.7328 66.1936 29.9217 66.0659 30.0606 65.8915C30.1995 65.7172 30.282 65.5047 30.2968 65.2822C30.325 65.0671 30.2843 64.8485 30.1806 64.6578C30.0769 64.4672 29.9156 64.3143 29.7197 64.2209C29.3357 64.0325 28.9278 63.8966 28.5272 63.7439C28.0724 63.6019 27.6251 63.4371 27.1868 63.2502C25.3766 62.3678 24.8376 60.4455 25.9323 58.7355C26.7217 57.5024 27.9381 57.066 29.3261 57.1662C30.7571 57.2663 31.8304 57.9699 32.3408 59.3699C32.4576 59.7014 32.5101 60.0424 32.6102 60.4455Z" fill="#3137E3"/>
<path d="M71.7177 65.0504H74.2219C74.2519 65.3871 74.4014 65.702 74.6433 65.9382C74.8851 66.1744 75.2035 66.3163 75.5408 66.3383C76.1299 66.4265 76.7786 66.0998 76.905 65.587C77.0624 64.9359 76.9694 64.4732 76.2682 64.1703C75.6291 63.8937 74.9565 63.6933 74.3054 63.4548C73.2727 63.0637 72.4427 62.4555 72.1589 61.3083C72.0534 60.8539 72.0438 60.3826 72.1306 59.9242C72.2174 59.4659 72.3987 59.0306 72.6631 58.6463C72.9274 58.2619 73.2689 57.9368 73.6658 57.6918C74.0627 57.4467 74.5064 57.287 74.9684 57.2229C75.8667 57.0509 76.7969 57.2048 77.5919 57.6569C78.6079 58.2556 79.1398 59.1786 79.1994 60.4188C79.073 60.4188 78.9442 60.4402 78.8154 60.4426H77.3844C77.0004 60.4426 76.6689 60.4903 76.4638 59.9871C76.2802 59.5268 75.7483 59.5602 75.3262 59.6341C75.155 59.6623 74.9973 59.7443 74.8759 59.8682C74.7545 59.9922 74.6758 60.1516 74.6512 60.3233C74.5935 60.5078 74.6009 60.7065 74.6721 60.8862C74.7433 61.0659 74.874 61.2158 75.0424 61.3107C75.4231 61.5088 75.8225 61.6686 76.2349 61.7877C76.6164 61.9165 77.0171 61.9904 77.3939 62.1264C79.0944 62.7441 79.8123 64.0344 79.4641 65.7969C79.3007 66.6212 78.8599 67.3648 78.2151 67.9037C77.5703 68.4427 76.7603 68.7445 75.92 68.759C74.532 68.7972 73.3204 68.4394 72.4451 67.2946C71.9424 66.6574 71.6844 65.8613 71.7177 65.0504Z" fill="#3137E3"/>
<path d="M63.0121 65.0699H65.5258C65.5568 65.1844 65.5807 65.3084 65.626 65.4348C65.7105 65.6384 65.8389 65.8208 66.002 65.969C66.1652 66.1173 66.359 66.2277 66.5697 66.2924C66.7804 66.3571 67.0028 66.3745 67.2211 66.3433C67.4393 66.3122 67.6479 66.2332 67.8321 66.1121C67.9825 66.0007 68.1022 65.8531 68.1802 65.683C68.2582 65.5128 68.2918 65.3257 68.278 65.1391C68.2642 64.9525 68.2034 64.7724 68.1013 64.6156C67.9991 64.4588 67.8589 64.3304 67.6938 64.2423C67.1619 63.9752 66.5633 63.8416 66.0243 63.6055C65.4645 63.3973 64.9313 63.1235 64.4359 62.7899C63.2816 61.9074 63.0431 60.2904 63.8134 58.9357C64.5456 57.6502 65.7333 57.1375 67.1524 57.178C68.5214 57.2162 69.6184 57.8029 70.2171 59.086C70.3536 59.4376 70.4551 59.8019 70.52 60.1735C70.5629 60.3548 70.4699 60.443 70.2815 60.443C69.5946 60.443 68.9053 60.443 68.2185 60.443C67.98 60.443 67.98 60.2904 67.918 60.1521C67.7152 59.7132 67.3933 59.5606 66.7875 59.6083C66.5955 59.6167 66.4118 59.6892 66.2657 59.8141C66.1196 59.939 66.0195 60.1092 65.9814 60.2976C65.9168 60.5132 65.9351 60.7452 66.0326 60.9481C66.1301 61.151 66.2997 61.3103 66.5084 61.3946C67.1118 61.6475 67.7582 61.8049 68.3878 62.0004C69.4634 62.3367 70.4079 62.8662 70.7227 64.0277C71.2617 66.0334 70.2195 68.1871 67.9013 68.6521C66.4536 68.9431 65.1156 68.6903 64.0304 67.598C63.7014 67.2653 63.4419 66.8704 63.267 66.4363C63.0922 66.0023 63.0055 65.5378 63.0121 65.0699Z" fill="#3137E3"/>
<path d="M145.867 53.8594H148.371V68.3553H145.867V53.8594Z" fill="#3137E3"/>
<path d="M36.9451 68.3724H34.4051C34.4051 68.2269 34.3789 68.0958 34.3789 67.9646C34.3789 64.6256 34.3789 61.2867 34.3789 57.9477C34.3789 57.6257 34.4433 57.4946 34.8034 57.5089C35.5189 57.5399 36.2201 57.5089 36.9499 57.5089L36.9451 68.3724Z" fill="#3137E3"/>
<path d="M36.9714 53.8453C36.9714 54.5846 36.9714 55.2763 36.9714 55.9536C36.9574 56.0033 36.931 56.0486 36.8947 56.0853C36.8584 56.122 36.8134 56.1489 36.7639 56.1635C36.0484 56.1802 35.3329 56.1826 34.6317 56.1635C34.5743 56.1487 34.5218 56.1188 34.4799 56.0769C34.4379 56.0349 34.408 55.9825 34.3932 55.925C34.3741 55.3001 34.3741 54.6761 34.3932 54.0528C34.4086 54.0032 34.4364 53.9583 34.4739 53.9224C34.5115 53.8865 34.5576 53.8608 34.6079 53.8477C35.3734 53.8405 36.1438 53.8453 36.9714 53.8453Z" fill="#3137E3"/>
</g>
<defs>
<clipPath id="clip0_3022_19768">
<rect width="151" height="68.7899" fill="white"/>
</clipPath>
</defs>
</svg>
