<svg width="28" height="28" viewBox="0 0 28 28" fill="none" xmlns="http://www.w3.org/2000/svg">
<g clip-path="url(#clip0_853_34782)">
<path d="M21.2986 6.8993C21.8214 6.3765 22.3246 5.87648 22.8252 5.37267C23.0987 5.09735 23.4215 4.93595 23.8145 4.92962C23.9929 4.92229 24.1709 4.95133 24.3377 5.01499C24.5045 5.07864 24.6566 5.17557 24.7848 5.29989C25.0464 5.55306 25.3038 5.80982 25.557 6.07016C26.1513 6.67714 26.1481 7.48729 25.5437 8.09237C23.9685 9.6692 22.3917 11.2441 20.8132 12.8172C19.2346 14.3902 17.6559 15.9635 16.077 17.5369C15.926 17.6825 15.7417 17.7889 15.5402 17.8471C14.6953 18.0806 13.844 18.2901 12.994 18.5021C12.5155 18.6218 12.242 18.3344 12.3712 17.854C12.5996 17.0015 12.8231 16.1451 13.0674 15.2989C13.1211 15.1278 13.2156 14.9722 13.3427 14.8457C15.6027 12.5794 17.8675 10.318 20.1372 8.06135C20.2002 8.00453 20.2499 7.93452 20.2827 7.85629C20.3155 7.77807 20.3307 7.69356 20.3271 7.60881C20.3182 6.41637 20.3239 5.22394 20.3226 4.03213C20.3226 3.31059 19.9334 2.92514 19.2049 2.92514C14.1579 2.92514 9.11095 2.92514 4.06398 2.92514C3.31776 2.92514 2.93294 3.3049 2.93294 4.04226C2.93294 9.52215 2.93294 15.0016 2.93294 20.4807C2.93294 21.2092 3.31269 21.5851 4.04499 21.5858C6.41847 21.5858 8.79195 21.5858 11.1648 21.5813C11.4094 21.5774 11.6482 21.6553 11.8433 21.8029C13.0351 22.6617 14.2345 23.5118 15.432 24.363C15.4953 24.408 15.5586 24.4485 15.6472 24.5061V22.5358C15.5744 22.5314 15.4991 22.5263 15.4231 22.5231C15.1193 22.5105 14.906 22.3111 14.9124 22.0453C14.9187 21.7794 15.125 21.6022 15.4187 21.5858C15.482 21.5858 15.5453 21.5858 15.6086 21.5858C16.8346 21.5858 18.0612 21.5858 19.2872 21.5858C19.9201 21.5858 20.3214 21.1851 20.322 20.5478C20.3254 18.8895 20.3254 17.2314 20.322 15.5736C20.322 15.5027 20.322 15.4312 20.322 15.3603C20.3366 15.0571 20.5397 14.8476 20.8068 14.8539C21.0739 14.8603 21.2587 15.0691 21.2594 15.3641C21.2594 17.1325 21.2727 18.9009 21.2537 20.6693C21.2423 21.6984 20.391 22.5048 19.3473 22.5193C18.5245 22.5295 17.7017 22.5193 16.8789 22.5193H16.6004V22.7978C16.6004 23.6352 16.6004 24.4719 16.6004 25.3086C16.6004 25.5352 16.5554 25.7359 16.332 25.8454C16.1194 25.9492 15.9396 25.8713 15.7624 25.7435C14.3172 24.708 12.8695 23.6761 11.4192 22.6478C11.3051 22.569 11.1705 22.5251 11.0319 22.5212C8.7141 22.5145 6.39653 22.5128 4.07917 22.5162C2.80952 22.5162 2 21.7123 2 20.4484C2 14.9769 2 9.50548 2 4.03403C2 3.00426 2.58862 2.23462 3.53485 2.03334C3.69841 2.00682 3.86426 1.99706 4.0298 2.00423C9.1004 2.00423 14.1712 2.00423 19.2422 2.00423C20.4625 2.00423 21.2644 2.80488 21.2676 4.01884C21.2676 4.95051 21.2676 5.88218 21.2676 6.81385C21.2756 6.84313 21.286 6.87171 21.2986 6.8993ZM14.2453 15.3027L15.5928 16.6318L24.0778 8.16579L22.7404 6.83221C19.9146 9.65 17.0829 12.4735 14.2453 15.3027ZM24.8196 7.48096C25.1398 7.19108 25.1468 6.98094 24.8392 6.67144C24.6335 6.46447 24.4278 6.25688 24.2189 6.05307C23.9316 5.77268 23.693 5.7923 23.4392 6.10371L24.8196 7.48096ZM13.4655 17.4179L14.5794 17.1091L13.7769 16.3084C13.6851 16.6382 13.5813 17.0046 13.4655 17.4173V17.4179Z" fill="#3138E3"/>
<path d="M12.6405 10.6285C11.8177 10.6285 10.9949 10.6323 10.1721 10.6285C9.77714 10.6253 9.53916 10.312 9.67904 9.9873C9.77461 9.76071 9.96196 9.68919 10.1961 9.68919C11.643 9.69172 13.0901 9.69172 14.5374 9.68919C14.7349 9.68919 14.933 9.68539 15.1304 9.68919C15.4374 9.69615 15.6501 9.89046 15.6501 10.1569C15.6501 10.4234 15.4393 10.6234 15.1304 10.6259C14.3013 10.6316 13.4709 10.6278 12.6405 10.6285Z" fill="#3138E3"/>
<path d="M8.6568 18.4436H6.56814C6.4892 18.4465 6.41017 18.4421 6.33206 18.4303C6.22184 18.4114 6.12203 18.3537 6.05074 18.2675C5.97944 18.1814 5.94138 18.0725 5.94344 17.9607C5.94912 17.8451 5.99681 17.7355 6.07757 17.6525C6.15833 17.5695 6.2666 17.5189 6.38206 17.5101C6.45231 17.5031 6.52383 17.5069 6.59535 17.5069C8.01058 17.5069 9.4256 17.5069 10.8404 17.5069C11.1524 17.5069 11.3632 17.6968 11.3695 17.9632C11.3759 18.2297 11.1619 18.4335 10.8372 18.443C10.7815 18.443 10.7265 18.443 10.6708 18.443L8.6568 18.4436Z" fill="#3138E3"/>
<path d="M8.30846 6.70889H6.43436C6.22297 6.70889 6.03752 6.62028 5.99511 6.41964C5.966 6.2558 5.99654 6.08695 6.08119 5.94368C6.14132 5.84937 6.3236 5.78924 6.45145 5.78798C7.69326 5.77658 8.93506 5.77785 10.1769 5.78355C10.4933 5.78355 10.6883 5.97659 10.6832 6.25445C10.6781 6.5323 10.4838 6.70635 10.1598 6.70825C9.54267 6.71205 8.92557 6.70825 8.3091 6.70825L8.30846 6.70889Z" fill="#3138E3"/>
<path d="M13.7329 6.7107C13.2671 6.7107 12.8006 6.71387 12.3348 6.7107C12.012 6.70754 11.8177 6.53412 11.8126 6.25753C11.8075 5.98094 12.0025 5.7879 12.3189 5.786C13.2586 5.77967 14.1983 5.77967 15.138 5.786C15.4545 5.786 15.6576 5.9841 15.6551 6.25183C15.6526 6.51956 15.4462 6.70817 15.1323 6.71134C14.6633 6.71387 14.1987 6.7107 13.7329 6.7107Z" fill="#3138E3"/>
<path d="M7.32655 9.68752C7.61137 9.68752 7.89619 9.68309 8.17974 9.68752C8.46329 9.69195 8.67596 9.88942 8.67786 10.1489C8.67837 10.2106 8.66657 10.2717 8.64316 10.3287C8.61974 10.3857 8.58519 10.4375 8.54151 10.481C8.49783 10.5245 8.44591 10.5589 8.38879 10.5821C8.33167 10.6052 8.2705 10.6168 8.20886 10.616C7.60884 10.6283 7.00861 10.6283 6.40818 10.616C6.34643 10.6165 6.28523 10.6045 6.22823 10.5807C6.17122 10.557 6.11959 10.522 6.0764 10.4779C6.03321 10.4338 5.99937 10.3814 5.97688 10.3239C5.95439 10.2664 5.94372 10.2049 5.94551 10.1432C5.9512 9.88436 6.15943 9.69258 6.45185 9.68815C6.74426 9.68372 7.03477 9.68688 7.32655 9.68752Z" fill="#3138E3"/>
<path d="M10.8196 14.5266C10.5594 14.5266 10.2993 14.531 10.0391 14.5266C9.74104 14.5209 9.54357 14.3367 9.53914 14.0734C9.53471 13.8101 9.72902 13.6107 10.024 13.6069C10.5522 13.5998 11.0797 13.5998 11.6063 13.6069C11.9 13.6107 12.0987 13.8082 12.0955 14.0709C12.0924 14.3335 11.8949 14.5209 11.5981 14.5272C11.3404 14.531 11.0797 14.5266 10.8196 14.5266Z" fill="#3138E3"/>
<path d="M7.36421 14.5271C7.19838 14.5271 7.03192 14.5334 6.86609 14.5271C6.74614 14.5271 6.63098 14.4801 6.54539 14.396C6.4598 14.312 6.41064 14.1977 6.40849 14.0777C6.40638 14.0183 6.41608 13.959 6.43705 13.9034C6.45801 13.8477 6.48982 13.7968 6.53062 13.7535C6.57142 13.7102 6.6204 13.6755 6.67473 13.6513C6.72906 13.6271 6.78765 13.6139 6.8471 13.6125C7.20281 13.6005 7.55915 13.6005 7.91422 13.6125C8.02992 13.6157 8.13989 13.6636 8.2209 13.7463C8.30191 13.8289 8.34763 13.9398 8.34841 14.0556C8.35053 14.1754 8.30594 14.2914 8.22407 14.3789C8.14221 14.4664 8.0295 14.5187 7.90979 14.5246H7.86232H7.36421V14.5271Z" fill="#3138E3"/>
<path d="M17.4119 6.70846C17.2537 6.70846 17.0954 6.71543 16.9378 6.70846C16.8182 6.70603 16.7041 6.65733 16.6196 6.57259C16.5351 6.48785 16.4868 6.37367 16.4847 6.25402C16.4805 6.13776 16.5223 6.02454 16.6009 5.9388C16.6795 5.85306 16.7887 5.80169 16.9049 5.79578C17.2362 5.77901 17.568 5.77901 17.8993 5.79578C18.0152 5.80249 18.1239 5.85447 18.2019 5.94054C18.2799 6.0266 18.321 6.13986 18.3163 6.25592C18.3157 6.37182 18.2706 6.48306 18.1905 6.56676C18.1103 6.65047 18.0011 6.70027 17.8853 6.70593C17.7284 6.71733 17.5689 6.70593 17.4119 6.70593V6.70846Z" fill="#3138E3"/>
</g>
<defs>
<clipPath id="clip0_853_34782">
<rect width="24" height="23.8968" fill="white" transform="translate(2 2)"/>
</clipPath>
</defs>
</svg>
