<svg width="30" height="36" viewBox="0 0 30 36" fill="none" xmlns="http://www.w3.org/2000/svg">
<g clip-path="url(#clip0_853_34760)">
<path d="M1.75913 36.0053C1.16851 35.8154 0.599853 35.5658 0.322118 34.9734C0.153368 34.6131 0.0153799 34.1974 0.014501 33.8054C-0.00483496 27.619 -0.00893781 21.4321 0.002195 15.2446C0.002195 14.6892 0.298387 14.3481 0.747508 14.3877C0.902014 14.3916 1.05019 14.4499 1.16594 14.5523C1.2817 14.6547 1.35761 14.7947 1.38032 14.9476C1.40457 15.0977 1.4134 15.25 1.40669 15.402C1.40669 21.4594 1.40669 27.5174 1.40669 33.576C1.40669 34.3898 1.61499 34.599 2.42358 34.599H27.3845C28.1993 34.599 28.4084 34.3916 28.4084 33.583V2.43105C28.4084 1.61543 28.201 1.40537 27.3933 1.40537H13.8582C13.7527 1.40537 13.6472 1.40537 13.5417 1.40537C13.1506 1.38691 12.8773 1.1874 12.8052 0.871876C12.727 0.529103 12.8518 0.28125 13.2095 0.0632813C13.2376 0.0437208 13.2646 0.0225936 13.2904 0H28.0542C29.4974 0.591504 29.8121 1.06787 29.8121 2.65693V9.30059C29.8121 17.4082 29.8121 25.5161 29.8121 33.6243C29.8121 34.178 29.7163 34.6913 29.3849 35.1501C29.0536 35.6089 28.5693 35.8242 28.0542 36.0053H1.75913Z" fill="#3138E3"/>
<path d="M6.39919 0C7.02057 0.191602 7.67272 0.316406 8.2572 0.587109C10.5793 1.66113 11.851 4.15283 11.4485 6.73945C11.0706 9.16963 9.01657 11.1472 6.53542 11.4715C3.42058 11.8784 0.47536 9.68906 0.0754577 6.67002C-0.356964 3.404 1.7612 0.531737 4.94108 0.0676748C5.00732 0.0523254 5.07182 0.0302377 5.13356 0.00175685L6.39919 0ZM5.76989 10.1241C6.63196 10.1234 7.47445 9.8671 8.19084 9.38757C8.90722 8.90803 9.46531 8.22682 9.79453 7.4301C10.1237 6.63337 10.2093 5.75691 10.0404 4.91155C9.87144 4.0662 9.45562 3.28993 8.8455 2.68091C8.23537 2.07189 7.45834 1.65748 6.61269 1.49009C5.76703 1.32269 4.89072 1.40984 4.09459 1.7405C3.29846 2.07116 2.61827 2.63049 2.14004 3.34774C1.6618 4.06499 1.40701 4.90795 1.40788 5.77002C1.41229 6.92481 1.87352 8.03093 2.69083 8.84675C3.50814 9.66258 4.61509 10.1218 5.76989 10.1241Z" fill="#3138E3"/>
<path d="M8.83031 17.2827C9.63847 15.9015 10.8902 14.8343 12.382 14.2549C12.1034 13.6722 11.7307 13.1466 11.5954 12.5665C11.2121 10.915 11.5075 9.34356 12.8698 8.29063C14.6522 6.91514 17.4858 7.77559 18.1432 9.93067C18.5203 11.1717 18.5044 12.4022 17.8198 13.5579C17.688 13.7592 17.5457 13.9534 17.3935 14.1398C18.0729 14.5731 18.7997 14.9422 19.4097 15.4511C20.0197 15.96 20.4987 16.5937 21.048 17.1913C21.8286 16.2663 22.3741 15.1663 22.6379 13.9851C23.6267 9.58087 20.9416 5.34366 16.5251 4.40499C15.7341 4.23712 14.8974 4.30831 14.0818 4.27579C13.9183 4.26964 13.7539 4.30215 13.5905 4.29864C13.4191 4.30248 13.2526 4.24183 13.1238 4.1287C12.9951 4.01557 12.9135 3.85822 12.8953 3.6878C12.8733 3.52276 12.9149 3.35553 13.0117 3.22005C13.1085 3.08457 13.2532 2.991 13.4164 2.95831C13.9002 2.87199 14.3902 2.82583 14.8816 2.82032C17.0437 2.81771 19.14 3.56337 20.8148 4.93074C22.4896 6.2981 23.6396 8.20289 24.0697 10.3218C25.0953 15.386 21.7511 20.3721 16.6781 21.3415C15.4673 21.5736 14.2226 21.5643 13.0154 21.3141C11.8082 21.0639 10.6623 20.5779 9.64339 19.8838C8.62451 19.1896 7.75274 18.3012 7.07808 17.2693C6.40342 16.2375 5.93917 15.0825 5.71195 13.8708C5.62406 13.39 5.82269 13.02 6.22084 12.9348C6.66029 12.8398 6.99867 13.093 7.09975 13.6221C7.34672 14.973 7.92592 16.1691 8.83031 17.2827ZM9.87445 18.2987C12.8856 20.8194 17.3188 20.5839 19.9256 18.2741C18.8411 16.3107 17.1843 15.2199 14.9378 15.2085C12.6588 15.1944 10.981 16.2904 9.87445 18.2952V18.2987ZM16.9426 11.4134C16.9426 11.2719 16.9479 11.1427 16.9426 11.0144C16.8908 9.88057 15.9872 9.00518 14.8956 9.021C14.3686 9.0275 13.8644 9.23695 13.4879 9.60578C13.1114 9.9746 12.8915 10.4744 12.8742 11.0012C12.8555 11.3051 12.8585 11.61 12.8829 11.9135C12.9099 12.2626 13.027 12.5987 13.2228 12.8889C13.4186 13.1791 13.6865 13.4135 14.0002 13.5691C14.3138 13.7247 14.6625 13.7961 15.012 13.7764C15.3616 13.7568 15.7001 13.6466 15.9943 13.4568C16.7422 12.9761 16.9945 12.2519 16.9426 11.4099V11.4134Z" fill="#3138E3"/>
<path d="M16.4011 24.0517C18.0183 24.0517 19.6352 24.0517 21.2518 24.0517C21.751 24.0517 22.0428 24.2793 22.085 24.6748C22.1093 24.8451 22.067 25.0182 21.967 25.1581C21.867 25.2981 21.717 25.3941 21.548 25.4263C21.4323 25.4494 21.3143 25.4591 21.1964 25.4553C17.9984 25.4553 14.7998 25.4553 11.6005 25.4553C11.0398 25.4553 10.7005 25.1705 10.7216 24.7267C10.7401 24.3145 11.0512 24.0525 11.5496 24.0508C12.6623 24.0464 13.7758 24.0508 14.8894 24.0508L16.4011 24.0517Z" fill="#3138E3"/>
<path d="M16.4201 27.9834C18.0249 27.9834 19.6301 27.9834 21.2356 27.9834C21.7401 27.9834 22.0354 28.2014 22.0828 28.5916C22.1115 28.7614 22.0733 28.9356 21.9763 29.0778C21.8793 29.22 21.731 29.3192 21.5625 29.3545C21.4368 29.3806 21.3085 29.3918 21.1802 29.3879C17.9933 29.3879 14.8061 29.3879 11.6186 29.3879C11.253 29.3879 10.9339 29.3123 10.7775 28.9484C10.5727 28.4694 10.9251 27.9931 11.4991 27.9816C12.2602 27.9702 13.0222 27.9816 13.7842 27.9816L16.4201 27.9834Z" fill="#3138E3"/>
<path d="M9.10625 24.7416C9.10623 24.8777 9.066 25.0108 8.99062 25.1241C8.91525 25.2374 8.80807 25.3259 8.68256 25.3786C8.55704 25.4312 8.41878 25.4456 8.28512 25.4199C8.15146 25.3942 8.02836 25.3297 7.93128 25.2343C7.83419 25.1389 7.76745 25.0169 7.73942 24.8838C7.71139 24.7506 7.72333 24.6121 7.77373 24.4857C7.82414 24.3592 7.91076 24.2505 8.02274 24.1731C8.13471 24.0958 8.26704 24.0532 8.40312 24.0508C8.58708 24.0521 8.76332 24.1249 8.89454 24.2538C9.02576 24.3828 9.10169 24.5577 9.10625 24.7416Z" fill="#3138E3"/>
<path d="M9.10537 28.6767C9.10551 28.86 9.03466 29.0363 8.90766 29.1685C8.78067 29.3007 8.60741 29.3787 8.42422 29.3859C8.33257 29.3874 8.24153 29.3709 8.15629 29.3372C8.07105 29.3035 7.99328 29.2534 7.92741 29.1896C7.86155 29.1259 7.80889 29.0498 7.77243 28.9657C7.73597 28.8816 7.71644 28.7912 7.71494 28.6995C7.71344 28.6079 7.73 28.5168 7.76369 28.4316C7.79737 28.3463 7.84751 28.2686 7.91125 28.2027C7.97499 28.1368 8.05108 28.0842 8.13518 28.0477C8.21927 28.0113 8.30972 27.9917 8.40136 27.9902C8.5846 27.9917 8.76017 28.064 8.89138 28.1919C9.02258 28.3198 9.09925 28.4935 9.10537 28.6767Z" fill="#3138E3"/>
<path d="M1.40137 12.4292C1.40463 12.5672 1.3669 12.7031 1.29293 12.8196C1.21897 12.9362 1.1121 13.0282 0.985836 13.084C0.859577 13.1398 0.719601 13.1569 0.583618 13.1332C0.447634 13.1094 0.321749 13.0458 0.22189 12.9505C0.12203 12.8552 0.052682 12.7324 0.0226148 12.5977C-0.00745243 12.463 0.00311176 12.3224 0.0529747 12.1936C0.102838 12.0649 0.189758 11.9539 0.302739 11.8746C0.415721 11.7952 0.549688 11.7512 0.687695 11.748C0.870772 11.7502 1.04623 11.8217 1.17867 11.9481C1.31112 12.0745 1.3907 12.2464 1.40137 12.4292Z" fill="#3138E3"/>
<path d="M4.93885 6.39113C5.69032 5.63879 6.37499 4.95148 7.06317 4.26769C7.16706 4.15678 7.2819 4.05666 7.40594 3.96886C7.53942 3.88146 7.69932 3.84362 7.85782 3.86193C8.01632 3.88023 8.16338 3.95353 8.27342 4.06906C8.37892 4.17986 8.44475 4.32248 8.46065 4.47464C8.47655 4.62681 8.44162 4.77995 8.36131 4.91017C8.28984 5.01695 8.20735 5.11592 8.11522 5.20548C7.29491 6.0258 6.4746 6.84611 5.65428 7.66642C5.15858 8.16037 4.82723 8.16213 4.33592 7.67609C3.98436 7.32892 3.6328 6.98439 3.29266 6.63107C2.95252 6.27775 2.92528 5.86291 3.21268 5.57023C3.50008 5.27756 3.91053 5.29074 4.27352 5.63C4.39305 5.74162 4.51258 5.85588 4.62069 5.98156C4.72879 6.10724 4.8202 6.23556 4.93885 6.39113Z" fill="#3138E3"/>
</g>
<defs>
<clipPath id="clip0_853_34760">
<rect width="29.8178" height="36" fill="white"/>
</clipPath>
</defs>
</svg>
