<svg width="32" height="40" viewBox="0 0 32 40" fill="none" xmlns="http://www.w3.org/2000/svg">
<g clip-path="url(#clip0_1375_16373)">
<path d="M2.10062 40.0004L1.80962 39.8957C0.808944 39.5472 0.181949 38.871 0.0500599 37.8022C0.00362938 37.3215 -0.00721617 36.838 0.0176113 36.3557C0.0270319 35.9548 0.277204 35.7276 0.631001 35.7444C0.984798 35.7611 1.16902 35.9778 1.18158 36.3724C1.1931 36.7252 1.18158 37.0779 1.18787 37.4296C1.21299 38.2827 1.7531 38.8082 2.60828 38.8134C3.41637 38.8134 4.2255 38.8134 5.09324 38.8134V37.5573C5.09324 37.1658 5.08696 36.7743 5.09324 36.3829C5.10266 35.9642 5.33922 35.6931 5.6836 35.692C6.02797 35.691 6.26245 35.9568 6.26454 36.3808C6.27082 37.1752 6.26454 37.9687 6.26454 38.7883H25.5203V36.8372C25.5203 36.6938 25.5203 36.5493 25.5203 36.4059C25.5297 35.9746 25.7443 35.7119 26.0887 35.7035C26.4331 35.6952 26.6885 35.9715 26.6937 36.4206C26.701 37.0601 26.6937 37.7007 26.6937 38.3403V38.8249H28.1863C28.5265 38.8249 28.8657 38.8249 29.2048 38.8249C30.0024 38.8155 30.5844 38.3193 30.5907 37.5332C30.6085 35.4973 30.6493 33.4572 30.553 31.4245C30.4588 29.4357 29.0698 27.8111 27.1532 27.225C26.5178 27.0303 25.8814 26.8356 25.2366 26.6723C25.0557 26.6303 24.8658 26.6541 24.7007 26.7393C21.9701 28.3492 19.2455 29.9688 16.5267 31.5982C16.0766 31.8704 15.7239 31.8714 15.2707 31.5982C12.5785 29.9737 9.86845 28.3785 7.16892 26.7655C7.06944 26.6953 6.95455 26.6502 6.83394 26.6338C6.71334 26.6174 6.59057 26.6302 6.47598 26.6712C5.89609 26.8659 5.30154 27.0177 4.71641 27.1999C2.53083 27.8802 1.21717 29.6387 1.18577 31.9238C1.17844 32.4723 1.1931 33.0208 1.1774 33.5682C1.16693 33.923 0.939787 34.147 0.623673 34.1586C0.54793 34.1649 0.471694 34.1555 0.39973 34.1311C0.327766 34.1066 0.261621 34.0676 0.205428 34.0164C0.149236 33.9652 0.104204 33.903 0.0731489 33.8336C0.0420936 33.7642 0.0256822 33.6892 0.0249392 33.6132C0.00609795 32.3634 -0.100669 31.101 0.33896 29.89C1.05283 27.9252 2.43243 26.6566 4.42123 26.0547C4.89541 25.9124 5.38423 25.8098 5.84584 25.636C6.35894 25.4569 6.85326 25.228 7.32174 24.9525C8.72541 24.0722 10.1029 23.15 11.4898 22.2435C11.5825 22.1831 11.6596 22.1019 11.7152 22.0063C11.7708 21.9107 11.8033 21.8034 11.81 21.6931C11.8167 21.5827 11.7975 21.4723 11.7539 21.3707C11.7103 21.269 11.6435 21.179 11.5589 21.1078C10.2086 19.9648 9.38172 18.5308 9.12318 16.7723C9.10709 16.7031 9.07608 16.6384 9.03232 16.5825C8.98856 16.5266 8.93311 16.481 8.86987 16.4488C8.13715 16.162 7.78126 15.6313 7.78021 14.8536C7.78021 13.4164 7.78649 11.9803 7.76765 10.5442C7.76765 10.3453 7.63681 10.1485 7.57086 9.94963C7.47456 9.65863 7.31965 9.37078 7.30185 9.07455C7.26103 8.39732 7.29662 7.7138 7.27987 7.03865C7.27987 6.93398 7.1752 6.7508 7.08727 6.7351C6.20487 6.56657 5.31724 6.42108 4.39821 6.27035V8.96674C4.7541 9.20226 5.15604 9.34775 5.35492 9.63456C5.5538 9.92136 5.61975 10.3422 5.60614 10.7001C5.54857 12.2996 5.99448 13.8278 6.2122 15.3874C6.26035 15.736 6.33676 16.0804 6.39119 16.4279C6.53669 17.3699 5.9725 18.0482 5.01892 18.0566C4.19618 18.0629 3.37345 18.0629 2.55072 18.0566C1.58353 18.0472 1.0162 17.349 1.18263 16.3933C1.43175 14.9666 1.69553 13.542 1.91535 12.1111C1.99176 11.5993 1.9457 11.0644 1.94884 10.5473C1.95512 9.67643 2.3152 9.24203 3.19865 9.09026C3.19865 8.08225 3.19865 7.06587 3.19237 6.05472C3.17416 5.95555 3.12678 5.86407 3.05629 5.79199C2.41987 4.99333 2.7004 4.02405 3.68433 3.71107C7.2851 2.55966 10.8984 1.44594 14.4856 0.251609C15.4013 -0.0760572 16.4023 -0.0760572 17.3181 0.251609C20.8676 1.43338 24.4443 2.53245 28.0074 3.67444C28.2686 3.75304 28.5099 3.88691 28.7149 4.06696C29.0656 4.39459 29.1504 4.82794 29.0101 5.29165C28.952 5.51497 28.829 5.71608 28.6567 5.86958C28.4844 6.02308 28.2704 6.12211 28.0419 6.15416C26.9889 6.34362 25.9338 6.51842 24.8797 6.70055C24.7656 6.72044 24.6515 6.74661 24.4997 6.77801C24.4997 7.49189 24.4935 8.1953 24.4997 8.89766C24.4997 9.34147 24.4474 9.7497 24.1062 10.0847C24.0235 10.1663 24.0088 10.3453 24.0088 10.4803C24.0025 11.8903 23.9942 13.3013 24.0088 14.7112C24.0193 15.5654 23.6948 16.1693 22.8679 16.4729C22.8145 16.5003 22.768 16.5394 22.7318 16.5873C22.6956 16.6351 22.6705 16.6904 22.6585 16.7492C22.401 18.5517 21.55 20.014 20.1526 21.1706C19.8711 21.403 19.9192 22.008 20.229 22.2101C21.8128 23.2474 23.385 24.3035 24.9907 25.3011C25.3759 25.5418 25.8678 25.6151 26.3158 25.7501C27.3908 26.0715 28.4815 26.3457 29.3901 27.0596C30.9885 28.3157 31.7641 29.9643 31.7746 31.9792C31.7829 33.7678 31.7829 35.5566 31.7746 37.3459C31.7746 38.6993 31.0942 39.5723 29.7858 39.946C29.7504 39.9611 29.717 39.9804 29.6863 40.0035L2.10062 40.0004ZM11.5212 10.3945C11.5212 10.7922 11.5307 11.1921 11.5212 11.592C11.5152 12.0807 11.3174 12.5474 10.9704 12.8916C10.6235 13.2359 10.1552 13.43 9.66643 13.4321C9.44767 13.4384 9.2289 13.4321 8.97454 13.4321C8.97454 13.9754 8.94837 14.4789 8.99338 14.9834C9.00489 15.1121 9.22471 15.2848 9.37858 15.3246C9.97836 15.4806 10.2055 15.7067 10.261 16.3023C10.3669 17.7222 11.0048 19.0499 12.0472 20.0198C13.0896 20.9898 14.4597 21.5306 15.8835 21.5342C17.3074 21.5378 18.6802 21.0038 19.7274 20.0391C20.7747 19.0744 21.4192 17.7499 21.5322 16.3305C21.594 15.6962 21.8023 15.4869 22.4272 15.3225C22.579 15.2827 22.7925 15.1027 22.804 14.9719C22.848 14.4726 22.8218 13.967 22.8218 13.4332H22.2744C21.0466 13.4237 20.2793 12.6554 20.2699 11.4234C20.2699 11.0874 20.2699 10.7504 20.2699 10.3934L11.5212 10.3945ZM8.49199 9.16981H23.2991V6.79162C22.9349 6.74033 22.5853 6.70788 22.2419 6.63775C21.8986 6.56762 21.7238 6.32373 21.7646 5.98877C21.8054 5.65382 22.0441 5.48215 22.4042 5.49785C22.6135 5.50832 22.8229 5.5481 23.027 5.56485C23.3755 5.59311 23.7335 5.67475 24.0737 5.62765C25.1205 5.4832 26.1588 5.28955 27.2003 5.11161C27.4275 5.07183 27.6525 5.01321 27.8776 4.96402C27.8034 4.86953 27.7017 4.8004 27.5866 4.76619C23.773 3.55337 19.9586 2.34334 16.1436 1.1361C15.9591 1.08864 15.7648 1.09482 15.5836 1.1539C11.9661 2.29484 8.35103 3.44136 4.73839 4.59347C4.45996 4.68244 4.18467 4.78188 3.81308 4.90749C3.92336 4.95737 4.03704 4.99935 4.15327 5.0331C4.976 5.17267 5.79909 5.31049 6.62252 5.44656C7.09774 5.52298 7.58238 5.67894 8.04922 5.63812C9.37439 5.52297 10.6922 5.32409 12.0122 5.15662C14.0847 4.88656 16.1541 4.59033 18.2465 4.96716C18.6956 5.04776 19.1541 5.07183 19.6073 5.13778C19.9914 5.19116 20.2353 5.47064 20.1903 5.79408C20.1453 6.11752 19.8763 6.32373 19.4796 6.30279C19.3487 6.29651 19.22 6.2693 19.0902 6.25883C17.8435 6.16148 16.5958 5.99401 15.3492 5.99401C14.337 5.99401 13.3248 6.18661 12.3136 6.30803C11.045 6.4598 9.77948 6.62205 8.49304 6.78534L8.49199 9.16981ZM18.8024 22.0154C17.893 22.4417 16.901 22.6628 15.8966 22.6628C14.8923 22.6628 13.9002 22.4417 12.9909 22.0154C12.9362 23.0846 13.0531 24.1558 13.3373 25.188C13.3572 25.2623 13.5069 25.3325 13.6063 25.3492C15.1244 25.6235 16.6793 25.6235 18.1973 25.3492C18.2552 25.337 18.3096 25.3118 18.3564 25.2756C18.4032 25.2393 18.4411 25.1929 18.4674 25.1399C18.7409 24.1221 18.8539 23.0679 18.8024 22.0154ZM19.9538 23.4274C19.7444 25.6172 19.0368 27.5693 17.9179 29.3938L23.7628 25.9197L19.9538 23.4274ZM11.8269 23.4274L8.02724 25.9113L13.8722 29.3833C12.7385 27.5849 12.0389 25.5472 11.829 23.4316L11.8269 23.4274ZM5.20105 16.878C5.22053 16.812 5.23144 16.7437 5.2335 16.6749C5.01578 15.3654 4.79701 14.0581 4.56464 12.7486C4.5445 12.7013 4.51308 12.6597 4.47311 12.6274C4.43314 12.5951 4.38585 12.5731 4.3354 12.5633C3.90833 12.5445 3.48022 12.555 3.04059 12.555C2.80402 13.9262 2.57584 15.2597 2.34346 16.5933C2.30054 16.8382 2.4272 16.8832 2.63131 16.8801C3.10025 16.8738 3.57338 16.8801 4.03918 16.8801L5.20105 16.878ZM17.9514 26.666H13.8366C14.315 27.9221 15.1419 29.0002 15.8977 30.1904C16.6534 28.9919 17.4824 27.9179 17.9534 26.6702L17.9514 26.666ZM8.99757 10.3882V12.2545C9.25088 12.2545 9.47278 12.2713 9.69051 12.2545C10.038 12.221 10.2987 12.0347 10.3301 11.6788C10.3667 11.2601 10.3384 10.831 10.3384 10.3913L8.99757 10.3882ZM22.8145 12.2524V10.3945H21.4537C21.4537 10.8268 21.4307 11.2413 21.46 11.6506C21.4862 12.0086 21.7332 12.2064 22.0786 12.2462C22.3215 12.262 22.5651 12.2641 22.8082 12.2524H22.8145ZM4.43065 10.3223H3.15364V11.3596H4.43065V10.3223Z" fill="#3138E3"/>
</g>
<defs>
<clipPath id="clip0_1375_16373">
<rect width="31.7842" height="40" fill="white"/>
</clipPath>
</defs>
</svg>
