<svg width="36" height="36" viewBox="0 0 36 36" fill="none" xmlns="http://www.w3.org/2000/svg">
<g clip-path="url(#clip0_853_34778)">
<path d="M35.6303 28.7993C35.427 29.0693 35.1525 29.1368 34.8169 29.1332C33.5119 29.1197 32.2068 29.1332 30.9008 29.1269C30.1069 29.1269 29.739 28.7669 29.7381 27.9909C29.7381 25.1157 29.7381 22.2407 29.7381 19.3661V18.9322C29.0375 18.9322 28.3692 18.9088 27.7047 18.9385C27.0455 18.9669 26.3936 18.7937 25.8404 18.4434C23.8163 17.2326 21.7663 16.0615 19.7319 14.8651C19.3398 14.6267 18.8854 14.5036 18.4232 14.5104C17.071 14.5266 15.7197 14.523 14.3675 14.5104C14.0958 14.4997 13.8257 14.556 13.5823 14.6742C13.3389 14.7924 13.1302 14.9686 12.9755 15.1865C12.115 16.3126 11.2407 17.4298 10.3765 18.5532C9.84596 19.2437 9.94116 20.1007 10.5937 20.5913C11.2462 21.0819 12.1206 20.9513 12.6751 20.2717C13.3425 19.4534 13.9941 18.6234 14.6596 17.8042C15.2622 17.0616 16.1033 16.9122 16.9323 17.4118C20.3447 19.475 23.7556 21.5377 27.1649 23.5997C27.9274 24.0615 28.274 24.7313 28.1428 25.5973C28.0226 26.3768 27.5439 26.9017 26.7712 27.1348C26.4708 27.2248 26.1408 27.2248 25.7748 27.2662C25.7074 27.8199 25.4689 28.3465 24.943 28.7237C24.4171 29.1008 23.8255 29.1584 23.1785 29.0279C23.0944 29.6788 22.8227 30.218 22.2497 30.5772C21.6951 30.9273 21.0869 30.9669 20.4427 30.7707C20.4168 30.8787 20.3974 30.9633 20.3762 31.048C20.3072 31.3218 20.1778 31.5778 19.997 31.798C19.8161 32.0182 19.5882 32.1974 19.329 32.3231C19.0699 32.4487 18.7857 32.5179 18.4963 32.5258C18.2069 32.5336 17.9192 32.48 17.6533 32.3686C17.3464 32.2398 17.0442 32.0985 16.7438 31.9572C16.3621 31.7771 16.2632 31.5521 16.3935 31.1623C16.4286 31.0561 16.4859 30.9561 16.5266 30.8517C16.6038 30.6865 16.6158 30.4994 16.5602 30.3262C16.5046 30.1529 16.3854 30.0057 16.2253 29.9128C16.0657 29.8173 15.8748 29.7844 15.6913 29.8206C15.5077 29.8569 15.3451 29.9597 15.2363 30.1082C15.069 30.3215 14.922 30.5511 14.7742 30.7779C14.4729 31.2334 14.532 31.5215 14.9147 31.9122C15.0477 32.0463 15.1568 32.2902 15.1291 32.4604C15.1032 32.6143 14.8962 32.8052 14.7307 32.8529C14.5653 32.9006 14.3425 32.815 14.1993 32.7133C13.8363 32.4473 13.5875 32.0596 13.5013 31.6252C13.4151 31.1907 13.4975 30.7406 13.7325 30.362C13.8952 30.0919 14.0902 29.8381 14.2575 29.5698C14.5006 29.1819 14.4183 28.7597 14.068 28.5301C13.6983 28.288 13.2658 28.3789 12.9829 28.766C12.836 28.9676 12.6992 29.1756 12.5633 29.3844C12.286 29.8138 12.3258 30.1496 12.7177 30.4844C12.9312 30.6645 13.0328 30.8733 12.933 31.1389C12.8036 31.4864 12.3886 31.58 12.0429 31.3477C11.2832 30.8373 11.0457 29.7796 11.5207 28.9739C11.6816 28.7038 11.8757 28.4491 12.0457 28.1817C12.3027 27.7748 12.2223 27.349 11.8516 27.1168C11.481 26.8845 11.054 26.98 10.7721 27.3734C10.626 27.5759 10.4874 27.7829 10.3525 27.9918C10.0807 28.4122 10.1371 28.721 10.4966 29.072C10.6168 29.19 10.7462 29.37 10.7416 29.5221C10.737 29.6743 10.6205 29.9218 10.4856 29.9803C10.3888 30.0162 10.2854 30.032 10.182 30.0269C10.0785 30.0218 9.97735 29.9958 9.88478 29.9506C9.08806 29.4915 8.83666 28.3924 9.31635 27.5723C9.47071 27.3094 9.65741 27.0655 9.82285 26.8089C10.1001 26.384 10.0317 25.9492 9.65926 25.7116C9.28678 25.4739 8.85145 25.5757 8.5566 25.9897C8.43183 26.1644 8.3126 26.3444 8.19429 26.5236C7.8671 27.0142 7.90407 27.2905 8.3468 27.7001C8.66382 27.9927 8.64071 28.4482 8.26638 28.5877C8.16728 28.6182 8.06281 28.6285 7.95946 28.6179C7.85611 28.6074 7.75609 28.5763 7.66561 28.5265C7.05282 28.1331 6.83376 27.5363 6.86981 26.8098H6.03797C6.03797 27.1933 6.03797 27.593 6.03797 27.9918C6.03797 28.766 5.66826 29.1278 4.87524 29.1287C3.57017 29.1287 2.26418 29.1215 0.95911 29.135C0.624524 29.135 0.349091 29.0693 0.146676 28.8011V28.3969C0.313044 28.1331 0.550582 28.0422 0.872228 28.0458C2.09596 28.0602 3.31969 28.0512 4.54343 28.0512H4.91313V17.5441H4.5083C3.30675 17.5441 2.1052 17.536 0.903653 17.5495C0.577386 17.5495 0.318591 17.4757 0.132812 17.2092V16.805C0.311197 16.5287 0.570916 16.4567 0.898108 16.4603C2.14495 16.4738 3.39363 16.4657 4.64047 16.4657C5.72002 16.4657 5.95941 16.679 6.04629 17.7655H6.37163C7.3301 17.7655 8.28856 17.7574 9.24703 17.7709C9.34845 17.7774 9.44979 17.7573 9.5405 17.7126C9.6312 17.668 9.70796 17.6004 9.76278 17.5171C10.517 16.5386 11.2915 15.5736 12.0402 14.5905C12.6428 13.7984 13.4266 13.4203 14.4433 13.432C15.8066 13.4491 17.1689 13.4428 18.5322 13.432C19.1118 13.4234 19.6818 13.5758 20.1756 13.8713C22.3322 15.1316 24.4889 16.3876 26.6455 17.6395C26.8733 17.7649 27.1289 17.8347 27.3904 17.843C28.1604 17.8691 28.9321 17.8529 29.6882 17.8529C29.6995 17.8296 29.7079 17.8052 29.7131 17.7799C29.6475 16.8365 30.0828 16.4125 31.1809 16.4539C32.4037 16.5008 33.6293 16.4729 34.8539 16.4594C35.1811 16.4594 35.4399 16.5287 35.6192 16.8041V17.2083C35.4344 17.4784 35.1746 17.5522 34.8475 17.5486C33.6357 17.5351 32.4231 17.5432 31.2114 17.5432H30.8601V28.0485H31.2567C32.4693 28.0485 33.681 28.0575 34.8937 28.0431C35.2153 28.0386 35.4482 28.1331 35.6192 28.3942L35.6303 28.7993ZM17.6181 31.1506C17.7559 31.2172 17.8779 31.2793 18.0036 31.336C18.4657 31.5458 18.9472 31.426 19.1885 31.0363C19.4399 30.6321 19.3216 30.1676 18.8825 29.866C18.6053 29.6698 18.3076 29.4897 18.0294 29.2899C17.7512 29.09 17.6949 28.7732 17.8806 28.5229C18.0544 28.288 18.3659 28.233 18.6515 28.405C18.8779 28.54 19.0868 28.7002 19.3114 28.838C19.7883 29.1323 20.2616 29.4357 20.7542 29.704C20.9476 29.811 21.1762 29.8403 21.3915 29.7857C21.6067 29.731 21.7916 29.5968 21.9068 29.4114C22.0276 29.2303 22.0727 29.0111 22.0328 28.7987C21.993 28.5863 21.8711 28.3967 21.6923 28.269C21.5934 28.1925 21.4844 28.1277 21.3781 28.0602C20.8864 27.7469 20.3882 27.4409 19.8992 27.1186C19.6026 26.9224 19.5443 26.6172 19.7246 26.3588C19.8955 26.1149 20.195 26.0546 20.488 26.2121C20.5989 26.2724 20.7006 26.3471 20.8087 26.411C21.635 26.9035 22.4511 27.4121 23.2904 27.882C23.905 28.2249 24.6075 27.8559 24.6389 27.2023C24.6565 26.8287 24.4614 26.5722 24.1453 26.3741C23.3844 25.9054 22.6268 25.4328 21.8726 24.9563C21.5315 24.7403 21.4409 24.4333 21.6202 24.1578C21.7995 23.8824 22.1249 23.8347 22.4687 24.0462C23.1896 24.4909 23.9032 24.9464 24.626 25.3893C25.0068 25.6225 25.3922 25.8493 25.7887 26.0555C26.1279 26.2355 26.4634 26.1779 26.7555 25.9384C27.0475 25.699 27.1464 25.3758 27.0096 25.058C26.895 24.8177 26.7114 24.6148 26.481 24.4738C23.1382 22.4334 19.7889 20.4046 16.4332 18.3876C15.9794 18.1175 15.7918 18.1472 15.4664 18.5532C14.8056 19.376 14.1577 20.2087 13.4811 21.0198C12.8184 21.8146 11.9394 22.1261 10.9181 21.901C9.8968 21.676 9.21653 21.0171 8.98639 20.0043C8.90321 19.6443 8.94018 19.2554 8.92262 18.8719H6.05461V25.7026C6.29162 25.6885 6.52928 25.6885 6.76629 25.7026C7.20809 25.7566 7.47891 25.6126 7.75249 25.2399C8.58433 24.0939 10.3636 24.3118 10.9514 25.6C10.9976 25.7008 11.0383 25.8043 11.0845 25.915C12.1936 25.8358 12.933 26.2985 13.2833 27.3256C14.3924 27.2416 15.1248 27.7082 15.4803 28.7255C17.1301 28.5994 17.9712 29.8921 17.6181 31.1506Z" fill="#3138E3" stroke="#3138E3" stroke-width="0.232558" stroke-miterlimit="10"/>
<path d="M14.4053 7.85765C14.3046 7.98997 14.2205 8.19972 14.0753 8.26003C13.9127 8.32755 13.6132 8.33745 13.5051 8.23843C12.8433 7.6461 12.2111 7.02586 11.5872 6.39122C11.3802 6.17968 11.419 5.90061 11.639 5.69357C11.8589 5.48652 12.1399 5.45952 12.3581 5.66206C13.005 6.25799 13.6225 6.87643 14.2436 7.49397C14.3166 7.56688 14.3341 7.69291 14.4053 7.85765Z" fill="#3138E3" stroke="#3138E3" stroke-width="0.232558" stroke-miterlimit="10"/>
<path d="M21.8238 8.39593C21.6852 8.2843 21.4745 8.19518 21.4172 8.04935C21.3552 7.88821 21.3599 7.60825 21.4661 7.49663C22.0688 6.86649 22.7001 6.25526 23.3433 5.66022C23.5624 5.45858 23.8452 5.49189 24.0615 5.70163C24.2778 5.91138 24.3101 6.18864 24.1049 6.39929C23.494 7.02943 22.859 7.62986 22.2222 8.23209C22.1399 8.31041 21.9967 8.32751 21.8238 8.39593Z" fill="#3138E3" stroke="#3138E3" stroke-width="0.232558" stroke-miterlimit="10"/>
<path d="M10.9776 10.3102C11.3806 10.3102 11.7845 10.3021 12.1875 10.3102C12.5701 10.3192 12.8114 10.5353 12.8114 10.845C12.8114 11.1546 12.5655 11.3779 12.1875 11.3851C11.3803 11.3941 10.5737 11.3941 9.76776 11.3851C9.39805 11.3806 9.14942 11.1402 9.16051 10.8333C9.1716 10.5263 9.40452 10.3255 9.76683 10.3156C10.1744 10.3021 10.5774 10.3102 10.9776 10.3102Z" fill="#3138E3" stroke="#3138E3" stroke-width="0.232558" stroke-miterlimit="10"/>
<path d="M18.4678 4.91086C18.4678 5.30244 18.4743 5.69493 18.4678 6.08652C18.4595 6.44029 18.2506 6.66354 17.9401 6.67614C17.6295 6.68875 17.3698 6.452 17.3642 6.09282C17.3525 5.29764 17.3525 4.50307 17.3642 3.70909C17.3698 3.36792 17.6129 3.13747 17.9188 3.13477C18.2386 3.13477 18.4632 3.36792 18.4734 3.7361C18.4678 4.12769 18.4678 4.51927 18.4678 4.91086Z" fill="#3138E3" stroke="#3138E3" stroke-width="0.232558" stroke-miterlimit="10"/>
<path d="M24.9395 11.3858C24.5476 11.3858 24.1548 11.393 23.7619 11.3858C23.3691 11.3786 23.1445 11.1734 23.1445 10.8457C23.1445 10.518 23.3664 10.3155 23.761 10.311C24.5577 10.3026 25.3545 10.3026 26.1512 10.311C26.5458 10.311 26.7686 10.5216 26.7686 10.8457C26.7686 11.1698 26.5458 11.3741 26.1521 11.3858C25.7584 11.3975 25.3443 11.3858 24.9395 11.3858Z" fill="#3138E3" stroke="#3138E3" stroke-width="0.232558" stroke-miterlimit="10"/>
</g>
<defs>
<clipPath id="clip0_853_34778">
<rect width="35.7692" height="30" fill="white" transform="translate(0 3)"/>
</clipPath>
</defs>
</svg>
