<svg width="52" height="53" viewBox="0 0 52 53" fill="none" xmlns="http://www.w3.org/2000/svg">
<g clip-path="url(#clip0_836_12393)">
<path d="M51.443 39.4481C51.173 39.0782 50.8861 38.7587 50.5823 38.4897C50.2785 38.2207 49.9409 38.0021 49.5696 37.8339L44.8608 35.4631C44.827 35.4295 44.7679 35.337 44.6835 35.1857C44.5992 35.0343 44.557 34.841 44.557 34.6056V34.0002C45.097 33.4622 45.5021 32.8148 45.7722 32.0582C46.0422 31.3015 46.1772 30.5196 46.1772 29.7125V28.0984C46.1772 27.4594 46.0591 26.8457 45.8228 26.2572C45.5865 25.6687 45.2152 25.1558 44.7089 24.7186C44.27 24.2478 43.7553 23.8863 43.1646 23.6341C42.5738 23.3819 41.9578 23.2558 41.3165 23.2558C40.6751 23.2558 40.0591 23.3819 39.4684 23.6341C38.8776 23.8863 38.3629 24.2478 37.9241 24.7186C37.4177 25.1894 37.0464 25.7107 36.8101 26.2824C36.5738 26.8541 36.4557 27.4594 36.4557 28.0984V29.7125C36.4557 30.486 36.5992 31.2595 36.8861 32.0329C37.173 32.8064 37.5696 33.4622 38.076 34.0002V34.6056C38.076 34.841 38.0338 35.0343 37.9494 35.1857C37.865 35.337 37.8059 35.4295 37.7722 35.4631L35.2405 36.7242L31.0886 34.656C31.0549 34.6224 30.9958 34.5383 30.9114 34.4038C30.827 34.2693 30.7848 34.0675 30.7848 33.7985V31.0745C31.5274 30.3347 32.1013 29.4855 32.5063 28.5271C32.9114 27.5687 33.1477 26.585 33.2152 25.5762C33.2827 25.5089 33.3418 25.4585 33.3924 25.4248C33.443 25.3912 33.4852 25.3576 33.519 25.324C33.6878 25.1222 33.8143 24.9204 33.8987 24.7186C33.9831 24.5169 34.0253 24.3151 34.0253 24.1133V20.0778C34.0253 18.9681 33.8228 17.9256 33.4177 16.9503C33.0127 15.9751 32.4219 15.1007 31.6456 14.3273C30.903 13.5874 30.0338 13.0158 29.038 12.6122C28.0422 12.2087 27.0042 12.0069 25.9241 12.0069C24.8101 12.0069 23.7637 12.2087 22.7848 12.6122C21.8059 13.0158 20.9283 13.6043 20.1519 14.3777C19.4093 15.1176 18.8354 15.9835 18.4304 16.9756C18.0253 17.9676 17.8228 19.0017 17.8228 20.0778V24.1133C17.8228 24.3151 17.865 24.5169 17.9494 24.7186C18.0338 24.9204 18.1603 25.0886 18.3291 25.2231C18.3629 25.2903 18.4135 25.3408 18.481 25.3744C18.5485 25.408 18.5992 25.4585 18.6329 25.5257C18.7004 26.5346 18.9367 27.5267 19.3418 28.5019C19.7468 29.4771 20.3207 30.3011 21.0633 30.9736V33.8489C21.0633 34.1179 21.0211 34.3197 20.9367 34.4542C20.8523 34.5887 20.7932 34.6728 20.7595 34.7064L16.6076 36.7242L14.0759 35.5135C14.0084 35.4799 13.9325 35.379 13.8481 35.2109C13.7637 35.0427 13.7215 34.8578 13.7215 34.656V34.0507C14.2616 33.479 14.6667 32.8232 14.9367 32.0834C15.2068 31.3435 15.3418 30.5701 15.3418 29.763V28.1488C15.3418 27.5098 15.2236 26.8961 14.9873 26.3076C14.7511 25.7191 14.3966 25.2063 13.9241 24.7691C13.4515 24.2646 12.9283 23.8947 12.3544 23.6593C11.7806 23.4239 11.1561 23.3062 10.481 23.3062C9.83966 23.3062 9.22363 23.4239 8.63291 23.6593C8.04219 23.8947 7.52743 24.2646 7.08861 24.7691C6.61603 25.2063 6.25316 25.7191 6 26.3076C5.74684 26.8961 5.62025 27.5098 5.62025 28.1488V29.763C5.62025 30.5365 5.76371 31.3015 6.05063 32.0582C6.33755 32.8148 6.73418 33.479 7.24051 34.0507V34.656C7.24051 34.8914 7.19831 35.0848 7.11392 35.2361C7.02954 35.3874 6.97046 35.4799 6.93671 35.5135L2.27848 37.8339C1.94093 38.0021 1.63713 38.2123 1.36709 38.4645C1.09705 38.7167 0.860759 38.9941 0.658228 39.2968C0.455696 39.5995 0.295359 39.9358 0.177215 40.3057C0.0590717 40.6756 0 41.0623 0 41.4659V43.988L1.06329 44.4925C1.80591 44.8624 2.5654 45.1819 3.34177 45.4509C4.11814 45.7199 4.91139 45.9385 5.72152 46.1067C6.22785 46.2412 6.76793 46.3421 7.34177 46.4093C7.91561 46.4766 8.48945 46.527 9.06329 46.5607V52.4121H10.6835V45.1482C10.6835 43.3659 11.2489 42.046 12.3797 41.1884C13.5105 40.3309 14.9367 39.4649 16.6582 38.5906H16.8608V38.4897L20.557 36.6233C20.827 37.8676 21.4684 38.9185 22.481 39.776C23.4937 40.6336 24.6751 41.0623 26.0253 41.0623C27.3755 41.0623 28.5654 40.642 29.5949 39.8012C30.6245 38.9605 31.2743 37.9012 31.5443 36.6233L35.2405 38.4393V38.5402H35.443C37.1646 39.4145 38.5907 40.2805 39.7215 41.138C40.8523 41.9955 41.4177 43.3155 41.4177 45.0978V52.3617H43.038V46.6616C43.6118 46.5943 44.1772 46.5186 44.7342 46.4346C45.2911 46.3505 45.8397 46.258 46.3797 46.1571C47.1899 45.9553 47.9831 45.7199 48.7595 45.4509C49.5359 45.1819 50.2785 44.8792 50.9873 44.5429L52.0506 44.0889V41.5668C52.0506 41.1968 51.9916 40.8353 51.8734 40.4822C51.7553 40.1291 51.6118 39.7844 51.443 39.4481ZM7.29114 28.1488C7.29114 27.7116 7.37553 27.2913 7.5443 26.8877C7.71308 26.4842 7.94937 26.1479 8.25316 25.8788C8.59072 25.5762 8.95359 25.3408 9.34177 25.1726C9.72996 25.0045 10.1266 24.9204 10.5316 24.9204C10.9367 24.9204 11.3502 25.0045 11.7722 25.1726C12.1941 25.3408 12.5401 25.5762 12.8101 25.8788C13.1139 26.2151 13.3502 26.5766 13.519 26.9634C13.6878 27.3501 13.7722 27.7452 13.7722 28.1488V29.763C13.7722 30.6037 13.519 31.4865 13.0127 32.4113C12.5063 33.3361 11.6793 33.7985 10.5316 33.7985C9.38397 33.7985 8.55696 33.3361 8.05063 32.4113C7.5443 31.4865 7.29114 30.6037 7.29114 29.763V28.1488ZM8.91139 45.0474C8.43882 44.9801 7.94093 44.9044 7.41772 44.8204C6.89452 44.7363 6.4135 44.6438 5.97468 44.5429C5.26582 44.3748 4.54852 44.1562 3.82278 43.8872C3.09705 43.6181 2.4135 43.3155 1.77215 42.9792H1.62025V41.4659C1.62025 41.1968 1.65401 40.9614 1.72152 40.7597C1.78903 40.5579 1.85654 40.3561 1.92405 40.1543C2.05907 39.9526 2.21097 39.776 2.37975 39.6247C2.54852 39.4734 2.73418 39.3641 2.93671 39.2968L7.59494 36.926C7.86498 36.8251 8.11814 36.6149 8.35443 36.2954C8.59072 35.9759 8.75949 35.5808 8.86076 35.11C9.09705 35.2109 9.35865 35.2865 9.64557 35.337C9.93249 35.3874 10.2447 35.4127 10.5823 35.4127C10.8861 35.4127 11.173 35.3874 11.443 35.337C11.7131 35.2865 12 35.2109 12.3038 35.11C12.3713 35.5472 12.5232 35.9339 12.7595 36.2702C12.9958 36.6065 13.2489 36.8251 13.519 36.926L14.8861 37.6826C13.2658 38.4561 11.865 39.3725 10.6835 40.4318C9.50211 41.4911 8.91139 43.0296 8.91139 45.0474ZM21.3165 15.4875C21.9241 14.8822 22.6245 14.4198 23.4177 14.1003C24.211 13.7808 25.0464 13.6211 25.9241 13.6211C26.7679 13.6211 27.5865 13.7808 28.3797 14.1003C29.173 14.4198 29.9072 14.8822 30.5823 15.4875C31.1224 16.0592 31.5527 16.6981 31.8734 17.4043C32.1941 18.1105 32.3713 18.8672 32.4051 19.6743C32.1688 19.5734 31.9156 19.4809 31.6456 19.3969C31.3755 19.3128 31.0886 19.2707 30.7848 19.2707H29.9747C29.8734 19.2707 29.7722 19.2455 29.6709 19.1951C29.5696 19.1446 29.4684 19.1026 29.3671 19.069C29.2996 18.9681 29.2405 18.8756 29.1899 18.7915C29.1392 18.7075 29.1139 18.5982 29.1139 18.4636C29.1139 18.2955 29.0802 18.1442 29.0127 18.0097C28.9451 17.8751 28.827 17.7743 28.6582 17.707C28.4895 17.6397 28.3291 17.6229 28.1772 17.6566C28.0253 17.6902 27.8819 17.7574 27.7468 17.8583L26.3291 19.2707H21.0633C20.7595 19.2707 20.4726 19.3044 20.2025 19.3716C19.9325 19.4389 19.6793 19.5398 19.443 19.6743C19.4768 18.9008 19.654 18.1526 19.9747 17.4296C20.2954 16.7065 20.7426 16.0592 21.3165 15.4875ZM20.2532 24.9204C20.2532 24.685 20.1772 24.4916 20.0253 24.3403C19.8734 24.189 19.6793 24.1133 19.443 24.1133V22.4991C19.443 22.2974 19.4852 22.0956 19.5696 21.8938C19.654 21.692 19.7806 21.5239 19.9494 21.3894C20.0844 21.2212 20.2532 21.0951 20.4557 21.011C20.6582 20.927 20.8608 20.8849 21.0633 20.8849H26.7342C26.8692 20.8849 26.9789 20.8597 27.0633 20.8093C27.1477 20.7588 27.2405 20.7168 27.3418 20.6832L28.0506 19.9265C28.1181 19.9601 28.1688 19.9938 28.2025 20.0274C28.2363 20.061 28.27 20.1115 28.3038 20.1787C28.5738 20.4141 28.8523 20.5907 29.1392 20.7084C29.4262 20.8261 29.7215 20.8849 30.0253 20.8849H30.7848C30.9873 20.8849 31.1899 20.927 31.3924 21.011C31.5949 21.0951 31.7637 21.2212 31.8987 21.3894C32.0675 21.5239 32.1941 21.692 32.2785 21.8938C32.3629 22.0956 32.4051 22.2974 32.4051 22.4991V24.1133C32.1688 24.1133 31.9747 24.189 31.8228 24.3403C31.6709 24.4916 31.5949 24.685 31.5949 24.9204C31.5949 26.1647 31.1646 27.5519 30.3038 29.082C29.443 30.6121 27.9831 31.3772 25.9241 31.3772C23.865 31.3772 22.4051 30.6121 21.5443 29.082C20.6835 27.5519 20.2532 26.1647 20.2532 24.9204ZM25.9241 39.4481C24.8776 39.4481 23.9662 39.095 23.1899 38.3888C22.4135 37.6826 21.9747 36.8251 21.8734 35.8162C22.1097 35.5472 22.3038 35.2361 22.4557 34.883C22.6076 34.5299 22.6835 34.1516 22.6835 33.748V32.1338C23.1224 32.4029 23.6203 32.6046 24.1772 32.7392C24.7342 32.8737 25.3165 32.9409 25.9241 32.9409C26.5316 32.9409 27.1139 32.8737 27.6709 32.7392C28.2278 32.6046 28.7257 32.4029 29.1646 32.1338V33.748C29.1646 34.1516 29.2405 34.5299 29.3924 34.883C29.5443 35.2361 29.7384 35.5472 29.9747 35.8162C29.8734 36.8251 29.4346 37.6826 28.6582 38.3888C27.8819 39.095 26.9705 39.4481 25.9241 39.4481ZM38.076 28.1488C38.076 27.7116 38.1603 27.2913 38.3291 26.8877C38.4979 26.4842 38.7342 26.1479 39.038 25.8788C39.3755 25.5762 39.7384 25.3408 40.1266 25.1726C40.5148 25.0045 40.9114 24.9204 41.3165 24.9204C41.7215 24.9204 42.135 25.0045 42.557 25.1726C42.9789 25.3408 43.3249 25.5762 43.5949 25.8788C43.8987 26.2151 44.135 26.5766 44.3038 26.9634C44.4726 27.3501 44.557 27.7452 44.557 28.1488V29.763C44.557 30.6037 44.3038 31.4865 43.7975 32.4113C43.2911 33.3361 42.4641 33.7985 41.3165 33.7985C40.1688 33.7985 39.3418 33.3361 38.8354 32.4113C38.3291 31.4865 38.076 30.6037 38.076 29.763V28.1488ZM50.2278 42.9792L50.076 43.0801C49.3671 43.4164 48.6667 43.719 47.9747 43.988C47.2827 44.2571 46.5823 44.4757 45.8734 44.6438C45.3671 44.7783 44.8692 44.8876 44.3797 44.9717C43.8903 45.0558 43.4093 45.1146 42.9367 45.1482C42.9367 43.1305 42.346 41.5836 41.1646 40.5074C39.9831 39.4313 38.616 38.4897 37.0633 37.6826L38.4304 36.9764C38.6667 36.8419 38.9114 36.6149 39.1646 36.2954C39.4177 35.9759 39.5781 35.5808 39.6456 35.11C39.9156 35.2109 40.1941 35.2865 40.481 35.337C40.7679 35.3874 41.0633 35.4127 41.3671 35.4127C41.6709 35.4127 41.9578 35.3874 42.2278 35.337C42.4979 35.2865 42.7848 35.2109 43.0886 35.11C43.1561 35.5472 43.3165 35.9339 43.5696 36.2702C43.8228 36.6065 44.0675 36.8419 44.3038 36.9764L49.0127 39.2968C49.2152 39.3977 49.4008 39.5238 49.5696 39.6751C49.7384 39.8265 49.8734 40.003 49.9747 40.2048C50.076 40.3729 50.1519 40.5663 50.2025 40.7849C50.2532 41.0035 50.2785 41.2305 50.2785 41.4659V42.9792H50.2278ZM15.3924 47.5191H17.0127V52.3617H15.3924V47.5191ZM34.8354 47.5191H36.4557V52.3617H34.8354V47.5191ZM37.2658 13.6211H38.8861V15.2353H37.2658V13.6211ZM40.5063 13.6211H42.1266V15.2353H40.5063V13.6211ZM43.7468 13.6211H45.3671V15.2353H43.7468V13.6211ZM32.4051 9.5856H50.2278V19.2707H47.7975V21.3894L45.9241 19.523C45.8228 19.4557 45.73 19.4053 45.6456 19.3716C45.5612 19.338 45.4515 19.3212 45.3165 19.3212H35.5949V20.9354H45.0127L48 23.9115C48.1013 24.0124 48.1941 24.0797 48.2785 24.1133C48.3629 24.1469 48.4726 24.1638 48.6076 24.1638C48.6413 24.1638 48.692 24.1638 48.7595 24.1638C48.827 24.1638 48.8776 24.1301 48.9114 24.0629C49.0802 23.9956 49.2068 23.8947 49.2911 23.7602C49.3755 23.6257 49.4177 23.4912 49.4177 23.3567V20.9354H51.8481V8.02185H30.7848V12.0069H32.4051V9.5856ZM4.86076 5.55012H21.0633V7.16431H4.86076V5.55012ZM4.86076 8.7785H21.0633V10.3927H4.86076V8.7785ZM4.86076 12.0069H16.2025V13.6211H4.86076V12.0069ZM2.43038 20.8849C2.43038 21.0531 2.47257 21.2044 2.55696 21.3389C2.64135 21.4734 2.76793 21.5743 2.93671 21.6416C2.97046 21.6752 3.0211 21.692 3.08861 21.692C3.15612 21.692 3.20675 21.692 3.24051 21.692C3.37553 21.692 3.48523 21.6668 3.56962 21.6164C3.65401 21.5659 3.74684 21.5239 3.8481 21.4903L6.78481 18.4636H16.2025V16.8495H6.48101C6.34599 16.8495 6.23629 16.8747 6.1519 16.9251C6.06751 16.9756 5.99156 17.0344 5.92405 17.1017L4.05063 18.9681V16.8495H1.62025V2.32174H24.3038V10.3927H25.9241V0.707546H0V18.4636H2.43038V20.8849Z" fill="white"/>
</g>
<defs>
<clipPath id="clip0_836_12393">
<rect width="52" height="52.9286" fill="white" transform="matrix(1 0 0 -1 0 53)"/>
</clipPath>
</defs>
</svg>
