<svg width="16" height="21" viewBox="0 0 16 21" fill="none" xmlns="http://www.w3.org/2000/svg">
<path d="M8.1875 6.75C6.42969 6.75 5.0625 5.38281 5.0625 3.625C5.0625 1.90625 6.42969 0.5 8.1875 0.5C9.90625 0.5 11.3125 1.90625 11.3125 3.625C11.3125 5.38281 9.90625 6.75 8.1875 6.75ZM6.07812 16.4766L7.25 18C7.75781 18.7031 7.60156 19.6797 6.9375 20.1875C6.625 20.4219 6.3125 20.5 6 20.5C5.49219 20.5 5.02344 20.3047 4.75 19.875L2.875 17.375C2.44531 16.8281 2.44531 16.0469 2.875 15.4609L4.67188 13.2344L7.09375 15.2266L6.07812 16.4766ZM11.6641 13.2344L13.4609 15.4609C13.8906 16.0469 13.8906 16.8281 13.5 17.375L11.625 19.875C11.3125 20.3047 10.8438 20.5 10.375 20.5C10.0234 20.5 9.71094 20.4219 9.4375 20.1875C8.73438 19.6797 8.57812 18.7031 9.125 18L10.2578 16.4766L9.24219 15.2266L11.6641 13.2344ZM15.375 6.16406C15.8828 6.90625 15.7266 7.84375 15.0234 8.35156L13.4219 9.48438C12.7578 9.95312 12.0547 10.3047 11.3125 10.5781V11.75H5.0625V10.5781C4.32031 10.3047 3.57812 9.95312 2.91406 9.48438L1.35156 8.35156C0.648438 7.84375 0.453125 6.90625 0.960938 6.16406C1.46875 5.46094 2.40625 5.30469 3.14844 5.8125L4.71094 6.90625C6.78125 8.35156 9.55469 8.35156 11.625 6.90625L13.2266 5.8125C13.9297 5.30469 14.9062 5.46094 15.375 6.16406Z" fill="white"/>
</svg>
