<svg width="21" height="21" viewBox="0 0 21 21" fill="none" xmlns="http://www.w3.org/2000/svg">
<path d="M18.2844 0.5C19.3 0.5 20.1594 1.35938 20.1594 2.375V14.875C20.1594 15.9297 19.3 16.75 18.2844 16.75H16.4094V18.625C16.4094 19.6797 15.55 20.5 14.5344 20.5H2.03438C0.979688 20.5 0.159375 19.6797 0.159375 18.625V6.125C0.159375 5.10938 0.979688 4.25 2.03438 4.25H3.90938V2.375C3.90938 1.35938 4.72969 0.5 5.78438 0.5H18.2844ZM14.3 18.625C14.4172 18.625 14.5344 18.5469 14.5344 18.3906V16.75H5.78438C4.72969 16.75 3.90938 15.9297 3.90938 14.875V6.125H2.26875C2.1125 6.125 2.03438 6.24219 2.03438 6.35938V18.3906C2.03438 18.5469 2.1125 18.625 2.26875 18.625H14.3ZM18.05 14.875C18.1672 14.875 18.2844 14.7969 18.2844 14.6406V2.60938C18.2844 2.49219 18.1672 2.375 18.05 2.375H6.01875C5.8625 2.375 5.78438 2.49219 5.78438 2.60938V14.6406C5.78438 14.7969 5.8625 14.875 6.01875 14.875H18.05Z" fill="white"/>
</svg>
