<svg width="26" height="16" viewBox="0 0 26 16" fill="none" xmlns="http://www.w3.org/2000/svg">
<path d="M17.6281 0C17.9797 0 18.2922 0.15625 18.5266 0.390625L20.6359 2.5V10.0781C20.5578 9.96094 20.4406 9.88281 20.3625 9.76562L14.6594 5.15625L15.675 4.21875C15.9484 3.98438 15.9484 3.59375 15.7141 3.35938C15.4797 3.08594 15.0891 3.08594 14.8156 3.32031L11.7297 6.17188C11.6906 6.17188 11.6906 6.17188 11.6906 6.17188C11.0266 6.75781 10.0109 6.60156 9.50313 6.05469C8.95625 5.46875 8.95625 4.49219 9.58125 3.86719L13.4484 0.351562C13.6828 0.117188 13.9563 0 14.2688 0H17.6281ZM21.925 2.53906H25.675V12.5391H23.175C22.4719 12.5391 21.925 11.9531 21.925 11.2891V2.53906ZM23.8 11.2891C24.1125 11.2891 24.425 10.9766 24.425 10.6641C24.425 10.3125 24.1125 10.0391 23.8 10.0391C23.4484 10.0391 23.175 10.3125 23.175 10.6641C23.175 10.9766 23.4484 11.2891 23.8 11.2891ZM0.675 12.5V2.53906H4.425V11.25C4.425 11.9531 3.83906 12.5 3.175 12.5H0.675ZM2.55 10.0391C2.19844 10.0391 1.925 10.3125 1.925 10.6641C1.925 10.9766 2.19844 11.2891 2.55 11.2891C2.8625 11.2891 3.175 10.9766 3.175 10.6641C3.175 10.3125 2.8625 10.0391 2.55 10.0391ZM19.5422 10.7422C20.0891 11.1719 20.1672 11.9531 19.7375 12.5L19.3859 12.9688C18.9172 13.5156 18.1359 13.5938 17.6281 13.1641L17.3938 12.9688L16.1828 14.4922C15.675 15.1172 14.7375 15.1953 14.1125 14.6875L13.4484 14.1016H13.4094C12.55 15.1562 10.9875 15.3516 9.89375 14.4531L6.37813 11.25H5.675V2.5L7.78438 0.390625C8.01875 0.15625 8.33125 0 8.68281 0H11.9641L8.76094 2.92969C7.62813 3.98438 7.55 5.78125 8.56563 6.91406C9.62031 8.04688 11.3781 8.16406 12.55 7.07031L13.7219 6.01562L19.5422 10.7422Z" fill="white"/>
</svg>
