<svg width="40" height="40" viewBox="0 0 40 40" fill="none" xmlns="http://www.w3.org/2000/svg">
<g clip-path="url(#clip0_853_34772)">
<path d="M39.8461 10.5761C39.609 10.7325 39.3915 10.9593 39.1305 11.0349C38.1643 11.3145 37.1867 11.5527 36.2091 11.7888C36.002 11.8385 35.915 11.9203 35.8756 12.1357C35.7193 13.0005 35.5132 13.8569 35.3713 14.7247C35.2574 15.4238 34.9001 15.9447 34.3554 16.3579C33.3705 17.1066 32.2252 17.467 31.027 17.6234C28.0113 18.019 25.2887 17.2961 22.9203 15.3533C22.2993 14.8613 21.7965 14.2364 21.4487 13.5245C21.2284 13.0662 21.1685 12.5472 21.2789 12.0508C21.457 11.1902 21.602 10.3234 21.7967 9.467C21.865 9.16875 21.7718 9.02895 21.545 8.86946C20.7321 8.29574 19.9378 7.69613 19.13 7.11619C18.867 6.92771 18.6899 6.71335 18.7593 6.37263C18.8287 6.03192 19.0855 5.93251 19.3723 5.85484C22.8602 4.97043 26.3468 4.08327 29.8319 3.19335C29.9916 3.14779 30.16 3.142 30.3225 3.17647C30.4849 3.21095 30.6365 3.28465 30.7639 3.39115C33.6346 5.50446 36.5084 7.61501 39.3853 9.7228C39.5504 9.86424 39.7034 10.0191 39.843 10.1857L39.8461 10.5761ZM37.7542 10.1008C37.714 10.0525 37.6704 10.0072 37.6237 9.96513C35.1659 8.1618 32.706 6.36159 30.2441 4.56448C30.1191 4.4913 29.9708 4.46905 29.8298 4.50234C27.9026 4.97768 25.9784 5.46649 24.0533 5.95218C22.9928 6.2204 21.9334 6.49173 20.8305 6.77238C20.9226 6.85626 20.9734 6.91218 21.0376 6.95568C23.4623 8.73622 25.8894 10.5123 28.3189 12.2838C28.4639 12.3725 28.6376 12.4014 28.8035 12.3646C30.5185 11.9421 32.2293 11.503 33.9411 11.068L37.7542 10.1008ZM22.9783 9.94234C22.8437 10.6269 22.7598 11.2814 22.5796 11.91C22.3725 12.6453 22.5796 13.2262 23.0653 13.7554C23.2086 13.9215 23.3607 14.0798 23.521 14.2297C25.4886 15.9716 27.8011 16.6458 30.388 16.4376C31.3832 16.3579 32.3556 16.1435 33.2224 15.6091C33.5414 15.4124 33.9474 15.1493 34.0406 14.8335C34.3026 13.9936 34.4196 13.1082 34.6039 12.1958C34.4641 12.2248 34.3968 12.2372 34.3202 12.2559C32.4841 12.7198 30.6459 13.1765 28.8149 13.6581C28.6388 13.7131 28.4516 13.723 28.2707 13.6868C28.0897 13.6506 27.9208 13.5695 27.7793 13.451C26.3129 12.3501 24.831 11.2762 23.3532 10.1878C23.2403 10.1111 23.1212 10.0387 22.9783 9.94234Z" fill="#3138E3" stroke="#3138E3" stroke-width="0.31068" stroke-miterlimit="10"/>
<path d="M3.87672 33.5598V32.5139C3.87672 26.495 3.87672 20.4764 3.87672 14.4582C3.87672 13.1274 4.57368 12.4336 5.91167 12.4336H19.0886C19.1798 12.4336 19.2699 12.4336 19.36 12.4336C19.7348 12.4543 19.9865 12.6915 19.9979 13.0291C20.0005 13.1928 19.9392 13.351 19.8271 13.4703C19.715 13.5896 19.5608 13.6605 19.3972 13.668C19.2683 13.6768 19.139 13.6789 19.0099 13.6742H5.94999C5.25199 13.6742 5.12151 13.8099 5.12151 14.512V32.7251C5.12151 33.4107 5.27271 33.5598 5.96863 33.5598H32.7906C33.5073 33.5598 33.6512 33.4148 33.6512 32.6992C33.6512 28.1177 33.6512 23.5359 33.6512 18.9537C33.6434 18.8246 33.6465 18.695 33.6605 18.5664C33.7144 18.2495 33.9029 18.0486 34.2301 18.032C34.5781 18.0113 34.7914 18.1998 34.8732 18.5271C34.8947 18.6546 34.9006 18.7843 34.8908 18.9133C34.8908 23.5342 34.8908 28.155 34.8908 32.7759C34.8908 33.0203 34.866 33.2636 34.8494 33.5598H35.2378C36.1294 33.5598 37.0211 33.5546 37.9127 33.5598C38.3694 33.5598 38.5921 33.799 38.6034 34.2599C38.6438 35.9707 37.3742 37.2859 35.6789 37.2859H3.08863C1.38817 37.2859 0.124745 35.9852 0.156848 34.2682C0.165133 33.7876 0.387787 33.5619 0.875554 33.5588C1.75374 33.5536 2.63607 33.5588 3.51115 33.5588L3.87672 33.5598ZM37.2634 34.8315H1.49691C1.75685 35.6921 2.22183 36.0452 3.08345 36.0452H35.6758C36.5333 36.0452 36.9983 35.6931 37.2634 34.8315Z" fill="#3138E3" stroke="#3138E3" stroke-width="0.31068" stroke-miterlimit="10"/>
<path d="M15.0122 23.9177C15.0122 22.1579 15.0122 20.3974 15.0122 18.6362C15.0122 17.816 15.4264 17.5643 16.1514 17.9454C19.5219 19.7108 22.8921 21.4779 26.2619 23.2467C26.5446 23.3948 26.8159 23.5501 26.8118 23.9229C26.8077 24.2957 26.5353 24.4469 26.2526 24.595C22.8821 26.3597 19.5122 28.1264 16.1431 29.8952C15.4181 30.2742 15.0101 30.0215 15.0039 29.192C15.008 27.4357 15.0108 25.6776 15.0122 23.9177ZM16.286 19.4222V28.4257L24.8618 23.9219L16.286 19.4222Z" fill="#3138E3" stroke="#3138E3" stroke-width="0.31068" stroke-miterlimit="10"/>
</g>
<defs>
<clipPath id="clip0_853_34772">
<rect width="40" height="34.443" fill="white" transform="translate(0 3)"/>
</clipPath>
</defs>
</svg>
