<svg width="134" height="134" viewBox="0 0 134 134" fill="none" xmlns="http://www.w3.org/2000/svg">
<path d="M89.536 119.54H44.4444C44.4444 120.017 44.4444 120.43 44.4444 120.839C44.4805 121.93 44.2955 123.017 43.9006 124.034C43.5056 125.051 42.9089 125.978 42.1462 126.759C41.3836 127.54 40.4709 128.158 39.4631 128.576C38.4553 128.995 37.3731 129.205 36.2819 129.195C28.7147 129.232 21.1375 129.026 13.5771 129.269C8.4252 129.435 3.20567 125.129 4.90041 118.38C6.59515 111.632 10.7863 107.153 17.5179 105.137C17.748 105.069 17.9645 104.961 18.2655 104.843C13.8917 101.649 11.862 97.4952 13.0122 92.2453C14.1623 86.9953 17.748 84.0557 22.9404 82.9868V50.8509H13.6211C7.15668 50.834 3.42554 46.2065 4.941 39.9315C6.56132 33.227 10.739 28.8497 17.359 26.8167C17.5619 26.7525 17.7649 26.6983 17.9645 26.6273C18.0701 26.5775 18.1719 26.5198 18.2689 26.4548C14.6528 23.9211 12.6299 20.5316 12.7179 16.0935C12.734 14.5465 13.0661 13.019 13.6937 11.6049C14.3214 10.1908 15.2313 8.91988 16.3678 7.87011C17.4904 6.79161 18.8157 5.9464 20.2671 5.38339C21.7184 4.82037 23.267 4.55073 24.8232 4.59006C26.3794 4.62938 27.9124 4.97689 29.3335 5.61248C30.7545 6.24807 32.0354 7.15913 33.1021 8.29295C38.1086 13.5801 37.273 20.4437 30.8188 26.5596C33.8396 27.3275 36.5999 28.5893 38.7783 30.7779C40.0477 32.1246 41.2051 33.5727 42.2389 35.1078C42.6549 35.693 43.0203 35.9534 43.7408 35.9501C59.2584 35.9343 74.7761 35.9219 90.2938 35.9128C90.72 35.9128 91.3492 35.6828 91.5318 35.3581C94.1264 30.7644 98.0097 27.889 103.273 26.5292C99.2715 23.7046 97.2655 19.9735 97.7188 15.1463C97.8544 13.6429 98.289 12.1817 98.9972 10.8485C99.7053 9.51538 100.673 8.33715 101.842 7.383C104.225 5.36581 107.309 4.37306 110.42 4.6215C113.532 4.86994 116.419 6.33937 118.452 8.70902C122.196 13.0152 123.089 21.1371 115.745 26.5021C116.55 26.7626 117.301 26.952 118.015 27.2396C124.578 29.8882 128.39 34.7357 129.364 41.7176C129.498 42.779 129.418 43.8564 129.129 44.8866C128.841 45.9168 128.349 46.8789 127.684 47.7165C127.018 48.5541 126.192 49.2502 125.254 49.7641C124.316 50.278 123.284 50.5992 122.22 50.7089C120.292 50.9084 118.333 50.8171 116.391 50.8374C114.663 50.8543 112.934 50.8374 111.091 50.8374V82.9732C116.188 84.0219 119.771 86.9547 120.955 92.1742C122.139 97.3938 120.119 101.585 115.732 104.812C116.097 104.947 116.381 105.062 116.672 105.15C123.911 107.518 128.173 112.433 129.334 119.943C130.058 124.618 126.337 129.097 121.594 129.151C113.516 129.239 105.438 129.225 97.3636 129.151C93.0439 129.11 89.5631 125.43 89.536 121.107C89.5326 120.62 89.536 120.122 89.536 119.54ZM102.877 104.606C98.7979 101.612 96.8055 97.4445 97.9658 92.1878C99.126 86.931 102.735 84.0692 107.806 82.9732V50.8374C106.686 50.8374 105.675 50.8374 104.664 50.8374C102.001 50.807 99.3256 50.9287 96.6803 50.6987C94.7037 50.5051 92.8725 49.5739 91.5516 48.0907C90.2307 46.6074 89.5171 44.681 89.5529 42.6952C89.6214 41.4712 89.7546 40.2517 89.9521 39.0419H43.9471C44.0283 39.4241 44.0757 39.7184 44.1501 39.9958C45.74 46.3012 41.2207 51.2095 35.2028 50.8712C32.6319 50.7224 30.0475 50.8442 27.4699 50.8509C27.0234 50.8509 26.5769 50.8881 26.1405 50.9084V83.0071C31.4108 84.2384 34.8612 87.2321 35.9267 91.7514C37.2121 97.1874 35.3111 101.5 30.8526 104.782C30.9596 104.876 31.0791 104.956 31.2078 105.018C37.0261 106.602 41.0515 110.187 43.3856 115.725C43.5311 116.063 44.2076 116.384 44.6372 116.384C59.5212 116.418 74.4051 116.408 89.2891 116.432C90.0874 116.432 90.473 116.192 90.7673 115.434C91.8972 112.542 93.646 110.021 96.2101 108.279C98.3108 106.852 100.662 105.8 102.877 104.589V104.606ZM109.494 47.8166C113.3 47.8166 117.105 47.8538 120.911 47.8166C124.385 47.7693 126.739 45.1646 126.323 41.9375C125.532 35.8486 121.219 30.8895 115.16 29.6684C112.454 29.1271 109.616 29.1914 106.842 29.2252C99.8466 29.3166 94.1568 34.1504 92.7767 41.0038C91.9581 45.0631 94.1771 47.8031 98.3446 47.8268C102.052 47.8268 105.773 47.7997 109.494 47.7997V47.8166ZM24.4593 47.8166C28.2648 47.8166 32.0704 47.8437 35.876 47.8166C39.6815 47.7896 41.9141 45.1105 41.3052 41.3895C40.3513 35.5712 36.106 30.8016 30.3046 29.6853C27.3549 29.1203 24.2462 29.1204 21.2288 29.2557C17.9708 29.4052 14.8621 30.6654 12.4195 32.8267C9.97702 34.988 8.34781 37.9202 7.80278 41.1358C7.08564 45.1544 9.28779 47.7828 13.4113 47.7963C17.1019 47.8268 20.7823 47.7997 24.4593 47.7997V47.8166ZM24.4593 126.167C28.2648 126.167 32.0704 126.167 35.876 126.167C39.5969 126.167 41.86 123.532 41.3255 119.889C40.4629 113.996 35.9571 109.02 30.0644 107.985C27.2669 107.491 24.3375 107.535 21.4825 107.647C14.4667 107.911 9.03747 112.761 7.79263 119.652C7.11609 123.451 9.33176 126.157 13.1712 126.171C16.9361 126.16 20.6977 126.15 24.4593 126.15V126.167ZM109.474 126.167C113.404 126.167 117.335 126.208 121.269 126.167C122 126.162 122.721 126.001 123.385 125.695C124.049 125.389 124.639 124.944 125.118 124.392C125.596 123.839 125.951 123.191 126.159 122.49C126.367 121.79 126.423 121.053 126.323 120.329C125.542 114.115 121.009 109.034 114.802 107.961C111.963 107.471 108.99 107.555 106.088 107.67C99.3222 107.948 93.6799 113.164 92.665 119.848C92.1069 123.502 94.3564 126.157 98.0571 126.174C101.863 126.16 105.668 126.15 109.474 126.143V126.167ZM33.2746 94.7451C33.274 93.0131 32.7601 91.3201 31.798 89.8798C30.8359 88.4396 29.4686 87.3167 27.8688 86.653C26.2689 85.9893 24.5083 85.8144 22.8092 86.1505C21.1101 86.4866 19.5487 87.3186 18.3221 88.5415C17.0954 89.7643 16.2586 91.3232 15.9173 93.0212C15.5759 94.7193 15.7454 96.4804 16.4042 98.0823C17.063 99.6841 18.1816 101.055 19.6189 102.021C21.0561 102.988 22.7476 103.507 24.4796 103.513C25.6334 103.517 26.7767 103.293 27.8438 102.854C28.9109 102.415 29.8809 101.77 30.698 100.956C31.5151 100.141 32.1634 99.173 32.6056 98.1073C33.0477 97.0415 33.2751 95.8989 33.2746 94.7451ZM118.235 94.7451C118.238 93.0136 117.729 91.32 116.77 89.8779C115.812 88.4357 114.448 87.3097 112.851 86.6419C111.253 85.9741 109.494 85.7944 107.794 86.1255C106.095 86.4566 104.532 87.2837 103.302 88.5023C102.072 89.721 101.23 91.2766 100.883 92.973C100.537 94.6694 100.7 96.4305 101.353 98.034C102.006 99.6376 103.119 101.012 104.553 101.983C105.986 102.955 107.675 103.48 109.406 103.493C111.731 103.495 113.963 102.579 115.617 100.944C117.27 99.3087 118.211 97.0871 118.235 94.762V94.7451ZM109.44 25.0983C111.17 25.0983 112.861 24.5856 114.3 23.6249C115.738 22.6642 116.86 21.2986 117.523 19.7008C118.186 18.1029 118.36 16.3444 118.024 14.6474C117.688 12.9504 116.857 11.3911 115.635 10.1664C114.413 8.94174 112.856 8.10669 111.16 7.76674C109.463 7.42679 107.704 7.5972 106.105 8.25644C104.506 8.91567 103.138 10.0342 102.174 11.4706C101.21 12.907 100.693 14.597 100.689 16.3269C100.687 17.4799 100.912 18.6221 101.351 19.688C101.791 20.7539 102.436 21.7227 103.251 22.539C104.065 23.3552 105.032 24.0029 106.097 24.4449C107.162 24.887 108.304 25.1148 109.457 25.1152L109.44 25.0983ZM33.2746 16.3878C33.282 14.654 32.775 12.9571 31.8177 11.5115C30.8605 10.066 29.496 8.9368 27.897 8.26683C26.2979 7.59687 24.536 7.41622 22.8342 7.74773C21.1325 8.07924 19.5672 8.90801 18.3366 10.1292C17.1059 11.3504 16.265 12.9092 15.9204 14.6084C15.5758 16.3075 15.7428 18.0707 16.4004 19.675C17.058 21.2792 18.1766 22.6523 19.6147 23.6207C21.0528 24.5891 22.7458 25.1092 24.4796 25.1152C25.6306 25.1214 26.7716 24.9005 27.837 24.4649C28.9025 24.0293 29.8715 23.3878 30.6886 22.577C31.5057 21.7663 32.1547 20.8022 32.5984 19.7401C33.0422 18.6781 33.272 17.5388 33.2746 16.3878Z" fill="#3138E3" stroke="#3138E3" stroke-width="4.55556" stroke-miterlimit="10"/>
<path d="M68.857 100.022C67.5445 100.022 66.1508 99.9813 64.7639 100.056C64.5789 100.102 64.4055 100.185 64.2547 100.302C64.1038 100.418 63.9789 100.565 63.8878 100.732C63.4142 101.575 63.0624 102.488 62.6159 103.347C61.9968 104.528 61.1072 104.873 59.8691 104.362C57.3433 103.295 54.8277 102.202 52.3223 101.081C51.0334 100.502 50.6952 99.6295 51.1823 98.2933C51.5848 97.1872 52.5049 96.0033 52.3189 95.0189C52.1328 94.0345 50.7899 93.3275 50.066 92.4176C49.4842 91.6801 48.9632 91.4298 48.06 91.8933C47.2504 92.2527 46.4133 92.5468 45.5568 92.7727C44.4541 93.111 43.5779 92.7423 43.1517 91.7173C42.0241 89.0337 40.9529 86.3275 39.9381 83.5988C39.566 82.6111 39.9381 81.7755 40.8751 81.2309C40.9496 81.1869 41.0206 81.1464 41.0984 81.1091C42.2316 80.5713 43.8046 80.3176 44.383 79.4178C44.9615 78.518 44.6198 76.9721 44.5691 75.7137C44.5482 75.4913 44.4808 75.2758 44.3712 75.0812C44.2617 74.8865 44.1124 74.7171 43.9331 74.5839C43.1111 74.0765 42.1809 73.7517 41.3183 73.3086C40.1106 72.6929 39.725 71.8067 40.2358 70.6024C41.307 68.0383 42.4199 65.4889 43.5746 62.9541C44.1259 61.7295 45.1441 61.1917 46.2503 61.8818C48.811 63.4818 50.6681 62.8695 52.4102 60.6268C52.8906 60.0077 53.124 59.6119 52.7992 58.8948C52.4532 58.08 52.1528 57.2466 51.8994 56.3984C51.5138 55.1806 51.8757 54.2639 53.0157 53.7971C55.6339 52.7315 58.2657 51.693 60.9144 50.7019C62.1017 50.2587 62.944 50.6579 63.5157 51.8114C64.0874 52.9649 64.3242 54.4804 65.207 55.0825C66.0899 55.6846 67.5749 55.1637 68.7961 55.2922C69.591 55.3768 69.9462 55.1028 70.2168 54.4229C70.5551 53.6009 70.934 52.8025 71.3365 52.0144C71.9589 50.8034 72.8283 50.4346 74.0427 50.9488C76.6113 52.0245 79.1664 53.1329 81.7079 54.274C82.9122 54.8153 83.2471 55.7218 82.7938 56.9802C82.3879 58.1269 81.4407 59.3481 81.647 60.3629C81.8534 61.3777 83.2606 62.1016 84.015 63.0488C84.5257 63.6848 84.9824 63.8201 85.7063 63.5021C86.5625 63.1423 87.4363 62.8261 88.3245 62.5549C88.8162 62.3978 89.3489 62.4313 89.817 62.6488C90.2851 62.8662 90.6544 63.2517 90.8514 63.7287C91.9317 66.3537 92.9747 68.9945 93.9805 71.6511C94.3999 72.7674 93.9432 73.6502 92.8845 74.161C91.9745 74.6042 90.9935 74.9086 90.114 75.3991C89.7513 75.6625 89.5079 76.0592 89.4375 76.5019C89.3292 77.2021 89.5558 77.9666 89.3833 78.6398C89.0078 80.1011 89.6878 80.6694 90.9292 81.2343C91.8889 81.6583 92.6413 82.4453 93.0217 83.423C93.4022 84.4007 93.3796 85.4894 92.9589 86.4504C92.1402 88.3211 91.3419 90.2019 90.5098 92.0658C89.8129 93.6387 88.8928 94.136 87.3943 93.3106C85.2124 92.103 83.5853 92.1672 81.9413 94.2679C81.2073 95.2049 80.8555 95.7495 81.3155 96.9369C81.7051 97.9768 81.6664 99.1287 81.208 100.14C80.7495 101.152 79.9087 101.94 78.8698 102.332C77.0263 103.043 75.1962 103.794 73.3492 104.497C72.776 104.712 72.1425 104.701 71.5771 104.466C71.0118 104.231 70.5569 103.79 70.3048 103.232C69.8752 102.271 69.4659 101.301 69.043 100.333C68.9869 100.226 68.9248 100.122 68.857 100.022ZM73.7382 54.1184C73.2444 55.1332 72.764 56.033 72.3852 56.9599C71.8067 58.3502 70.7885 58.6885 69.1817 58.428C67.8618 58.2341 66.5223 58.2125 65.1969 58.3637C63.7897 58.4957 62.8899 58.1439 62.396 56.8922C62.0002 55.8774 61.5266 54.9201 61.07 53.8952L55.0826 56.2631C55.4817 57.3861 55.8166 58.384 56.1853 59.3684C56.6217 60.5253 56.3071 61.398 55.2787 62.2133C54.0611 63.2064 52.9295 64.3007 51.896 65.4844C51.0673 66.4146 50.2047 66.6818 49.1053 66.2421C48.0905 65.8395 47.0757 65.4505 45.9864 65.0243L43.4054 70.9441C44.4202 71.4177 45.3099 71.8743 46.2367 72.2633C47.6338 72.8553 48.0296 73.8803 47.6473 75.69C47.4176 76.723 47.3968 77.7915 47.5865 78.8326C47.9247 80.5239 47.6473 81.6267 46.3213 82.1916C45.2896 82.6314 44.268 83.0948 43.1822 83.5718L45.567 89.549C46.7611 89.1296 47.7962 88.7811 48.8212 88.3989C49.8461 88.0166 50.6377 88.3414 51.365 89.1668C52.488 90.4454 53.6618 91.6734 54.9033 92.837C55.7117 93.5948 56.0365 94.3762 55.6069 95.4113C55.1773 96.4464 54.7781 97.5153 54.3418 98.6384L60.2615 101.213C60.8027 100.079 61.2763 99.0511 61.7803 98.0329C62.3081 96.9538 63.2281 96.6798 64.5068 96.8658C65.926 97.0732 67.3651 97.1084 68.7927 96.9707C70.2845 96.8286 71.1606 97.2616 71.6511 98.5538C72.0198 99.5179 72.49 100.445 72.9332 101.436L78.9172 99.068C78.5113 97.9212 78.173 96.9233 77.8077 95.939C77.4119 94.87 77.6656 94.0514 78.518 93.2903C79.7862 92.2019 80.9934 91.0444 82.1342 89.823C82.9629 88.8995 83.8255 88.6458 84.9215 89.0991C85.9363 89.505 86.9511 89.8771 88.0269 90.2966L90.5943 84.3971C89.5288 83.8931 88.5884 83.4195 87.6277 82.9967C86.5182 82.5096 86.1325 81.7045 86.2374 80.4596C86.3829 78.7683 86.3051 77.0533 86.2915 75.3517C86.2915 74.2727 86.6975 73.5454 87.7055 73.1259C88.7136 72.7065 89.7081 72.2599 90.8142 71.7728C90.0193 69.7432 89.2548 67.8117 88.4463 65.782C87.33 66.1744 86.2915 66.5059 85.2767 66.9017C84.0014 67.399 83.1016 66.9017 82.212 65.6163C81.4506 64.5612 80.5389 63.6232 79.5058 62.8323C78.3895 61.9596 77.9024 61.097 78.403 59.8995C78.8394 58.8644 79.225 57.8056 79.6614 56.6893L73.7382 54.1184Z" fill="#3138E3" stroke="#3138E3" stroke-width="3.38272" stroke-miterlimit="10"/>
<path d="M53.7427 77.6271C53.752 75.0103 54.5362 72.4549 55.9962 70.2833C57.4563 68.1118 59.5268 66.4213 61.9466 65.4251C64.3663 64.429 67.0269 64.1718 69.5927 64.6861C72.1584 65.2004 74.5144 66.463 76.3633 68.3148C78.2122 70.1665 79.4713 72.5244 79.9816 75.0909C80.492 77.6575 80.2308 80.3177 79.2309 82.7359C78.2311 85.1541 76.5374 87.2221 74.3636 88.6788C72.1898 90.1355 69.6332 90.9158 67.0164 90.9212C65.2711 90.923 63.5426 90.5802 61.93 89.9124C60.3174 89.2447 58.8525 88.2652 57.6193 87.0302C56.3861 85.7951 55.4088 84.3287 54.7436 82.7151C54.0784 81.1015 53.7382 79.3724 53.7427 77.6271ZM56.7871 77.7116C56.7998 79.7272 57.4093 81.6939 58.5386 83.3635C59.6679 85.0331 61.2665 86.3307 63.1326 87.0927C64.9987 87.8546 67.0487 88.0467 69.0238 87.6447C70.999 87.2427 72.8108 86.2647 74.2307 84.834C75.6505 83.4033 76.6148 81.5841 77.0017 79.6059C77.3886 77.6277 77.181 75.5793 76.4049 73.719C75.6287 71.8588 74.319 70.2701 72.6409 69.1535C70.9628 68.0369 68.9915 67.4425 66.9759 67.4451C65.6317 67.4459 64.301 67.7127 63.0603 68.2299C61.8197 68.7472 60.6936 69.5047 59.7469 70.459C58.8002 71.4132 58.0516 72.5453 57.5442 73.79C57.0368 75.0347 56.7807 76.3675 56.7905 77.7116H56.7871Z" fill="#3138E3" stroke="#3138E3" stroke-width="3.38272" stroke-miterlimit="10"/>
</svg>
