<svg id="Layer_1" viewBox="0 0 512 512" xmlns="http://www.w3.org/2000/svg" data-name="Layer 1" width="300" height="300" version="1.1" xmlns:xlink="http://www.w3.org/1999/xlink" xmlns:svgjs="http://svgjs.dev/svgjs"><g width="100%" height="100%" transform="matrix(1,0,0,1,0,0)"><path d="m184.907 224.681c1.531.624 3.175.312 4.366-.851l63.893-63.921c1.559-1.56 4.11-1.56 5.669 0l63.894 63.921c1.162 1.162 2.834 1.475 4.365.851 1.53-.624 2.466-2.041 2.466-3.685v-202.96h-147.118v202.96c0 1.644.936 3.061 2.466 3.685zm18.822-148.933c1.899-5.839 6.974-9.978 13.068-10.687l17.631-2.013 7.37-16.157c2.552-5.584 8.051-9.099 14.202-9.099s11.65 3.515 14.201 9.099l7.37 16.157 17.632 2.013c6.094.709 11.168 4.848 13.067 10.687 1.871 5.84.227 12.161-4.309 16.328l-13.067 11.99 3.515 17.376c1.219 6.038-1.162 12.132-6.123 15.732-4.933 3.601-11.509 3.969-16.838.964l-15.448-8.702-15.449 8.702c-5.329 3.005-11.905 2.637-16.838-.964-4.989-3.6-7.342-9.694-6.151-15.732l3.544-17.376-13.068-11.99c-4.535-4.167-6.18-10.488-4.309-16.328zm12.416 7.484c-1.077-.964-1.445-2.41-.992-3.77.453-1.389 1.587-2.324 3.033-2.466l22.309-2.58c1.304-.142 2.324-.907 2.892-2.098l9.325-20.438c.596-1.304 1.843-2.098 3.289-2.098s2.692.793 3.288 2.098l9.325 20.438c.539 1.19 1.588 1.956 2.892 2.098l22.309 2.58c1.446.142 2.58 1.077 3.033 2.466.454 1.36.085 2.806-.992 3.77l-16.554 15.194c-.964.879-1.361 2.098-1.105 3.373l4.479 22.025c.283 1.417-.255 2.806-1.418 3.656-1.19.851-2.664.936-3.911.227l-19.56-11.055c-1.134-.652-2.438-.652-3.571 0l-19.56 11.055c-1.275.708-2.721.624-3.911-.227-1.162-.85-1.701-2.239-1.418-3.656l4.479-22.025c.255-1.275-.143-2.494-1.105-3.373l-16.555-15.194zm277.795 256.791-26.9 15.562c-7.313 4.195-16.725 1.672-20.92-5.613l-65.707-113.782c-4.224-7.313-1.701-16.725 5.612-20.948l26.901-15.534c1.956-1.134 4.479-.453 5.612 1.503l76.904 133.229c1.134 1.956.453 4.479-1.503 5.584zm-250.412 111.033-18.511 23.726c-2.239 2.863-5.471 4.536-8.872 4.961-3.26.396-6.689-.368-9.496-2.438-.17-.17-.368-.341-.596-.482-2.664-2.211-4.252-5.329-4.648-8.589-.425-3.401.425-6.945 2.665-9.808l18.821-24.095c2.239-2.835 5.442-4.535 8.816-4.933 3.288-.425 6.689.369 9.524 2.438.17.17.368.34.566.453 2.693 2.239 4.28 5.357 4.678 8.617.396 3.288-.369 6.69-2.438 9.496-.198.227-.368.426-.51.652zm-28.715-22.989-18.794 24.066v.028c-2.239 2.835-5.471 4.535-8.844 4.961-3.289.396-6.69-.397-9.496-2.467-.057-.057-.143-.113-.199-.17h-.028l-.085-.085-.085-.085h-.028l-.057-.057-.057-.028-.057-.028c-2.693-2.239-4.28-5.329-4.677-8.617s.396-6.69 2.466-9.496c.17-.199.34-.426.481-.652l9.354-11.962 23.046-29.537h.028l4.705-6.038c.199-.198.341-.396.511-.623 2.211-2.693 5.329-4.28 8.617-4.678 3.26-.396 6.689.397 9.496 2.466.17.17.368.312.567.454 2.692 2.211 4.28 5.329 4.677 8.617.425 3.373-.425 6.917-2.665 9.779l-18.85 24.151h-.028zm-35.32-14.485-12.443 15.931h-.028c-2.24 2.863-5.443 4.536-8.816 4.96-3.401.426-6.944-.425-9.808-2.664-2.863-2.24-4.563-5.471-4.961-8.845-.425-3.401.426-6.944 2.665-9.808l15.42-19.729.028-.028 17.235-22.082c2.239-2.863 5.471-4.564 8.844-4.96 3.288-.425 6.718.368 9.524 2.438.17.17.368.312.567.454 2.692 2.239 4.28 5.357 4.677 8.617.396 3.288-.368 6.689-2.438 9.496-.199.227-.369.425-.511.651l-19.956 25.569zm-25.993-26.476-15.449 19.757v.028c-2.239 2.835-5.442 4.535-8.844 4.961-3.26.396-6.69-.397-9.496-2.466-.198-.17-.369-.312-.596-.454-2.664-2.239-4.252-5.357-4.677-8.617-.397-3.401.453-6.945 2.692-9.808l15.421-19.729c2.239-2.863 5.442-4.563 8.844-4.961 3.288-.396 6.69.369 9.496 2.438.198.17.397.34.596.453 2.692 2.239 4.28 5.357 4.677 8.617.397 3.401-.453 6.945-2.664 9.78zm-21.912-145.163-65.707 113.783c-4.195 7.313-13.606 9.836-20.92 5.612l-26.9-15.534c-1.956-1.134-2.637-3.656-1.503-5.612l76.904-133.229c1.134-1.956 3.656-2.607 5.612-1.502l26.901 15.562c7.313 4.195 9.836 13.634 5.612 20.919zm239.471 2.637 61.455 106.412-9.496 8.192c-1.898-1.814-4.054-3.401-6.406-4.791l-120.784-69.732c-1.105-.624-2.324-.709-3.515-.255s-2.041 1.333-2.438 2.551l-5.783 17.972c-2.183 6.208-4.139 11.48-6.18 15.846-2.324 4.79-5.188 9.326-8.589 12.245-.142.114-.255.228-.368.312l-.113.085c-.198.17-.397.312-.596.453l-.113.085c-.113.085-.255.198-.396.284-3.686 2.551-8.249 3.912-13.068 4.592-4.535.566-9.949.624-16.497.227-1.305-.085-2.382-.709-3.118-1.758-.737-1.077-.936-2.296-.567-3.543 4.989-16.355 4.167-32.173 6.775-48.303 2.353-14.683 6.604-25.852 25.455-33.817 7.029-2.976 14.343-3.458 30.558-6.803 24.491-5.018 22.138-.879 44.305 11.792l29.48-12.047zm47.537 150.888c-3.118 5.415-8.221 9.043-13.89 10.46-1.077.255-2.098.113-3.062-.453l-88.895-51.308c-2.438-1.417-5.556-.595-6.973 1.871-1.418 2.438-.567 5.556 1.87 6.974l72.284 41.726c.935.567 1.587 1.36 1.87 2.409 1.616 5.613 1.049 11.85-2.098 17.292-3.118 5.414-8.248 9.042-13.918 10.432-1.077.283-2.098.142-3.033-.426l-62.985-36.34c-2.438-1.417-5.556-.567-6.974 1.871-1.389 2.438-.538 5.556 1.899 6.973l47.509 27.411c.964.567 1.587 1.36 1.899 2.438 1.615 5.613 1.049 11.85-2.098 17.292-3.118 5.414-8.249 9.014-13.918 10.432-1.077.283-2.069.113-3.033-.426l-48.303-27.893c-2.438-1.417-5.556-.567-6.973 1.871-1.418 2.438-.596 5.556 1.87 6.973l31.352 18.113c.964.567 1.587 1.361 1.899 2.438 1.587 5.584 1.021 11.82-2.126 17.234-6.123 10.63-19.814 14.286-30.416 8.164l-32.429-18.737 11.906-15.25.028-.028c3.968-5.102 5.527-11.338 4.79-17.32-.737-5.953-3.741-11.65-8.844-15.619v-.028c-3.884-3.033-8.447-4.648-13.011-4.932l6.944-8.873c3.969-5.102 5.527-11.367 4.791-17.319-.737-5.953-3.742-11.65-8.845-15.647s-11.366-5.527-17.319-4.818c-2.807.368-5.527 1.19-8.079 2.522-1.049-5.329-3.939-10.347-8.561-13.975-5.131-3.997-11.367-5.528-17.319-4.791-5.981.737-11.679 3.742-15.676 8.845l-5.329 6.831c-1.389-4.365-4.054-8.391-7.938-11.396v-.028c-5.102-3.968-11.366-5.527-17.319-4.79-5.952.736-11.65 3.741-15.647 8.844l-15.42 19.758c-1.134 1.474-2.098 3.033-2.835 4.648l-31.833-23.867c.766-.964 1.474-2.041 2.126-3.146l65.707-113.783c.766-1.36 1.445-2.778 1.956-4.224l34.44 19.814c32.117-2.013 40.706-14.655 63.1-9.865-6.831 7.541-10.602 17.122-12.614 29.679-2.721 16.809-1.729 34.752-7.795 50.797l-3.827 10.119c-.453 1.247-.34 2.495.369 3.628.708 1.106 1.785 1.786 3.117 1.899l10.744.964c14.797 1.304 32.145 2.013 44.504-7.653 8.844-6.917 14.201-19.162 18.368-30.897l3.855-11.962 111.996 64.659c10.602 6.122 14.259 19.813 8.136 30.415z" fill-rule="evenodd" fill="#ffffff" fill-opacity="1" data-original-color="#000000ff" stroke="none" stroke-opacity="1"/></g></svg>