<?xml version="1.0" encoding="UTF-8"?>
<svg version="1.1" xmlns="http://www.w3.org/2000/svg" width="512" height="512">
<path d="M0 0 C25.62652941 13.77511836 44.49026671 39.72525943 52.93359375 67.17773438 C55.33227716 75.64670556 57.35463494 84.15704944 57.34681702 92.99130249 C57.34887901 94.79588928 57.34887901 94.79588928 57.35098267 96.63693237 C57.34738739 97.94316559 57.34379211 99.2493988 57.34008789 100.59521484 C57.33980559 101.99509682 57.33996459 103.39497895 57.3405304 104.79486084 C57.34081669 108.58365396 57.33494706 112.37241526 57.32795644 116.161201 C57.32169498 120.12501329 57.32111689 124.08882635 57.31993103 128.05264282 C57.31682594 135.55355189 57.30862365 143.05444635 57.29858154 150.55534899 C57.28530214 160.69495462 57.27991385 170.83456427 57.27407932 180.97417641 C57.2646832 196.94243063 57.24475879 212.91065401 57.2265625 228.87890625 C14.3265625 228.87890625 -28.5734375 228.87890625 -72.7734375 228.87890625 C-72.93464964 193.99439108 -72.93464964 193.99439108 -72.96875 179.28125 C-72.99240677 169.156004 -73.02008845 159.03089196 -73.07519531 148.90576172 C-73.11532502 141.5288996 -73.14093175 134.15214705 -73.14979148 126.77517879 C-73.1549625 122.87660379 -73.16693422 118.97834196 -73.19635773 115.07986832 C-73.42172315 84.02277774 -73.42172315 84.02277774 -68.7734375 68.87890625 C-68.36136299 67.455532 -68.36136299 67.455532 -67.94096375 66.00340271 C-67.32885921 63.94886362 -66.64603616 61.9500368 -65.8984375 59.94140625 C-65.64360596 59.24305664 -65.38877441 58.54470703 -65.1262207 57.82519531 C-56.41787873 34.642213 -37.42346252 10.8726342 -14.90234375 -0.3671875 C-9.58258081 -2.25106685 -5.23487911 -2.11607085 0 0 Z M-18.7734375 83.87890625 C-23.10811784 89.70830394 -22.94046294 95.82774988 -22.9765625 102.80078125 C-22.98226257 103.66020325 -22.98796265 104.51962524 -22.99383545 105.40509033 C-23.00325956 107.22056864 -23.00980911 109.03606385 -23.01367188 110.8515625 C-23.02335618 113.60577845 -23.05439516 116.35924083 -23.0859375 119.11328125 C-23.09247074 120.88411019 -23.09771995 122.65494443 -23.1015625 124.42578125 C-23.1139093 125.23859558 -23.1262561 126.05140991 -23.13897705 126.88885498 C-23.11721528 132.57393565 -22.23486979 137.70675932 -19.7734375 142.87890625 C-15.06716139 147.47039514 -11.70429026 148.23389806 -5.31640625 148.16015625 C-1.58163332 147.74709381 0.46598078 146.37016293 3.2265625 143.87890625 C7.56124284 138.04950856 7.39358794 131.93006262 7.4296875 124.95703125 C7.43823761 123.66789825 7.43823761 123.66789825 7.44696045 122.35272217 C7.45638456 120.53724386 7.46293411 118.72174865 7.46679688 116.90625 C7.47648118 114.15203405 7.50752016 111.39857167 7.5390625 108.64453125 C7.54559574 106.87370231 7.55084495 105.10286807 7.5546875 103.33203125 C7.5670343 102.51921692 7.5793811 101.70640259 7.59210205 100.86895752 C7.57034028 95.18387685 6.68799479 90.05105318 4.2265625 84.87890625 C-0.47971361 80.28741736 -3.84258474 79.52391444 -10.23046875 79.59765625 C-13.96524168 80.01071869 -16.01285578 81.38764957 -18.7734375 83.87890625 Z " fill="#FFFFFF" transform="translate(263.7734375,1.12109375)"/>
<path d="M0 0 C1.01730921 -0.00869008 1.01730921 -0.00869008 2.05517012 -0.01755571 C4.30879187 -0.03547323 6.56238906 -0.04644444 8.8160553 -0.05725098 C10.43955707 -0.0684382 12.06305662 -0.07995188 13.68655396 -0.09176636 C18.99930156 -0.12816638 24.31207205 -0.1535129 29.62489319 -0.1763916 C30.98301774 -0.1823104 30.98301774 -0.1823104 32.36857915 -0.18834877 C40.91290232 -0.22474084 49.45723402 -0.25616456 58.00160885 -0.27745819 C68.91213655 -0.30505757 79.82201617 -0.35591213 90.732274 -0.43793249 C98.41569724 -0.49373362 106.09894455 -0.52269478 113.78256327 -0.5319314 C118.36725117 -0.53818344 122.9511767 -0.55625858 127.53564262 -0.60331726 C131.8476271 -0.64703751 136.15843353 -0.65745624 140.47060204 -0.64268875 C142.04921674 -0.6430169 143.62788276 -0.65525423 145.20629501 -0.68053818 C158.59607593 -0.88364084 158.59607593 -0.88364084 163.84976196 3.59301758 C169.85024184 9.93094743 168.28507964 18.57250984 168.37001038 26.82312012 C168.39656158 28.79211831 168.43742525 30.76097892 168.49305725 32.72937012 C168.57255535 35.57645561 168.60538226 38.42088521 168.62879944 41.2689209 C168.66179138 42.14005524 168.69478333 43.01118958 168.72877502 43.90872192 C168.70857818 50.14826442 166.92737724 53.2014221 162.61134338 57.66769409 C158.80321734 61.02449832 154.67749137 60.30325277 149.86192322 60.28761292 C148.91283022 60.28846734 147.96373722 60.28932176 146.98588383 60.29020208 C143.78594494 60.29185731 140.58605777 60.28633478 137.38612366 60.28088379 C135.10014345 60.2806019 132.81416314 60.28075968 130.52818298 60.28132629 C124.3053515 60.2816142 118.08253914 60.2757185 111.85971212 60.26875234 C105.36274912 60.26251773 98.86578572 60.26191491 92.36882019 60.26072693 C81.4585689 60.25796802 70.54832471 60.25171405 59.63807678 60.24279785 C48.39914485 60.23362258 37.16021483 60.22654231 25.92127991 60.22229004 C25.22882238 60.22202732 24.53636485 60.22176459 23.82292376 60.22149391 C20.34916051 60.2201889 16.87539725 60.21892518 13.40163398 60.217682 C-15.42889886 60.20731078 -44.25942454 60.18961948 -73.08995056 60.1673584 C-73.41130746 55.63422672 -73.67024688 51.09958813 -73.91807556 46.56188965 C-74.00976013 45.27931274 -74.1014447 43.99673584 -74.19590759 42.67529297 C-74.7277817 32.01881531 -74.7277817 32.01881531 -71.68663025 28.23718262 C-68.63671605 25.68477586 -65.64781954 23.93393917 -62.08995056 22.1673584 C-60.33275987 20.96950602 -58.58240603 19.76154599 -56.83995056 18.5423584 C-54.93877992 17.39136478 -53.02064736 16.26810631 -51.08995056 15.1673584 C-50.52888611 14.84525391 -49.96782166 14.52314941 -49.38975525 14.19128418 C-34.40284573 5.7343274 -17.30106572 0.11707849 0 0 Z " fill="#FFFFFF" transform="translate(344.08995056152344,451.8326416015625)"/>
<path d="M0 0 C0.66899505 -0.00297112 1.33799011 -0.00594224 2.02725774 -0.0090034 C4.28009128 -0.01770872 6.53287178 -0.01920026 8.78572083 -0.02069092 C10.3971264 -0.02531826 12.00853088 -0.03034281 13.61993408 -0.03573608 C18.00911216 -0.04888105 22.39827492 -0.05531057 26.78746963 -0.05974674 C29.53375374 -0.06267762 32.28003368 -0.06678273 35.02631569 -0.07125092 C43.62964998 -0.08493911 52.23297472 -0.094596 60.83631915 -0.09845281 C70.7449282 -0.10291947 80.65339833 -0.12039674 90.56196517 -0.1494534 C98.23096913 -0.17115508 105.89993429 -0.1811618 113.56896859 -0.18249393 C118.14306081 -0.18353706 122.71702269 -0.18933769 127.29108238 -0.20731354 C131.60604264 -0.22393857 135.92077672 -0.22588067 140.23575783 -0.21717453 C141.80815873 -0.21641147 143.3805725 -0.22064868 144.95294189 -0.23063278 C171.44230025 -0.38877536 197.11423871 8.09473341 217.83491516 24.82731628 C219.52602412 26.17610006 219.52602412 26.17610006 221.402771 27.19094849 C223.67321805 28.6652357 225.03864294 29.88134882 226.5584259 32.14044189 C227.29229292 36.98210676 226.89839872 41.65161891 226.4959259 46.51544189 C226.41664856 47.82384033 226.33737122 49.13223877 226.25569153 50.48028564 C226.05568483 53.70392304 225.82227835 56.92150553 225.5584259 60.14044189 C196.13927599 60.30019104 166.72015689 60.42404086 137.30066183 60.4978992 C133.8260356 60.50665396 130.35141023 60.51571424 126.87678528 60.52496338 C126.18506113 60.52679955 125.49333699 60.52863572 124.78065151 60.53052754 C113.58589837 60.56097215 102.3913973 60.61615585 91.19679362 60.68051147 C79.70679084 60.7460135 68.21696527 60.78433814 56.72677946 60.79906136 C50.27417496 60.80818904 43.82214186 60.82964806 37.36972046 60.88055229 C31.29574166 60.92808247 25.22256935 60.94271893 19.14842224 60.93219566 C16.91995866 60.93412066 14.69146799 60.9480349 12.46316528 60.97488022 C9.41714927 61.00977533 6.37416723 61.00131615 3.32807922 60.98222351 C2.00898331 61.01280835 2.00898331 61.01280835 0.663239 61.04401106 C-5.48563753 60.94001705 -8.52939495 59.08180508 -12.93738222 54.83741051 C-17.52987828 49.65634166 -15.83343059 40.10069712 -15.90153503 33.48468018 C-15.92808623 31.51568198 -15.96894991 29.54682138 -16.02458191 27.57843018 C-16.10408001 24.73134468 -16.13690692 21.88691508 -16.1603241 19.03887939 C-16.19331604 18.16774506 -16.22630798 17.29661072 -16.26029968 16.39907837 C-16.24010284 10.15953588 -14.4589019 7.1063782 -10.14286804 2.6401062 C-6.83615914 -0.27470657 -4.32559781 0.01069757 0 0 Z " fill="#FFFFFF" transform="translate(15.441574096679688,451.85955810546875)"/>
<path d="M0 0 C1.45162211 -0.00435691 2.90324192 -0.00954329 4.3548584 -0.01548767 C8.26353533 -0.02877407 12.17211499 -0.02946872 16.08081007 -0.02692437 C19.35159052 -0.025849 22.62235174 -0.03075169 25.89312804 -0.03552979 C33.60617577 -0.04658599 41.31917476 -0.04708235 49.03222656 -0.04101562 C56.98210642 -0.03495899 64.93181005 -0.04733841 72.88165987 -0.06858569 C79.72267894 -0.08619516 86.56364185 -0.09220466 93.40468276 -0.08894795 C97.4842374 -0.08713617 101.56366588 -0.08976213 105.64319992 -0.10366249 C109.4731948 -0.11622798 113.30291346 -0.11430912 117.13290405 -0.1012516 C118.53696409 -0.09888463 119.94104353 -0.10162488 121.34508133 -0.10987473 C123.26293692 -0.12033107 125.18087114 -0.11044505 127.09872437 -0.0995636 C128.70748475 -0.09981521 128.70748475 -0.09981521 130.34874535 -0.10007191 C135.49506851 0.56586725 138.89751058 3.44938012 142.24462891 7.2746582 C143.40390418 10.75248403 143.35775957 13.46269077 143.34228516 17.13012695 C143.34016273 18.12258171 143.34016273 18.12258171 143.33799744 19.13508606 C143.33240887 21.24415648 143.31985855 23.35311997 143.30712891 25.4621582 C143.30211242 26.89379729 143.29754978 28.32543805 143.29345703 29.75708008 C143.28244321 33.26297409 143.26518645 36.7688057 143.24462891 40.2746582 C142.20326027 40.27962342 142.20326027 40.27962342 141.14085388 40.28468895 C124.13318996 40.36643129 107.1256173 40.45868353 90.11807251 40.56218529 C81.8928609 40.61199573 73.66765772 40.65843789 65.44238281 40.6965332 C58.26098219 40.72980282 51.07965377 40.7698171 43.89833355 40.81744826 C40.10702108 40.84237192 36.31575434 40.86424693 32.52438354 40.87800217 C-6.27201864 41.02440973 -38.75680771 44.28588169 -73.08569336 63.35424805 C-74.2947583 64.02074532 -75.52052482 64.65723507 -76.75537109 65.2746582 C-76.95445809 60.57926786 -77.09889461 55.88637635 -77.19482422 51.18774414 C-77.23484036 49.59290744 -77.28927615 47.99836026 -77.35888672 46.40454102 C-77.92036484 33.20980515 -77.92036484 33.20980515 -75.0949707 28.51660156 C-73.08380036 26.47916287 -71.11998877 24.88012458 -68.75537109 23.2746582 C-67.98821777 22.67830566 -67.22106445 22.08195312 -66.43066406 21.4675293 C-47.03034567 6.49695774 -24.22165123 -0.04853526 0 0 Z " fill="#FFFFFF" transform="translate(347.75537109375,381.725341796875)"/>
<path d="M0 0 C1.22196075 -0.0071553 2.44392151 -0.01431061 3.70291138 -0.02168274 C5.05975316 -0.02452317 6.41659522 -0.02723488 7.7734375 -0.02983093 C9.20116338 -0.03609735 10.62888763 -0.04274431 12.05661011 -0.04974365 C16.75387435 -0.07079435 21.45113889 -0.08115832 26.1484375 -0.09111023 C27.77101661 -0.09515973 29.39359555 -0.09927671 31.01617432 -0.10346031 C38.65308633 -0.12252721 46.28998869 -0.13674579 53.92691994 -0.14507228 C62.70299328 -0.15480086 71.47881144 -0.18099832 80.25479507 -0.22157317 C87.05849526 -0.25193254 93.86212324 -0.26656041 100.66588974 -0.26985329 C104.71813022 -0.27218459 108.77009869 -0.28088781 112.82226562 -0.30631447 C145.47545113 -0.50032835 173.73124918 3.68137198 199.1484375 26.14717102 C200.44056152 27.20110046 200.44056152 27.20110046 201.75878906 28.27632141 C204.76777253 31.89122094 204.79814095 34.58239135 204.63671875 39.07295227 C204.62610664 40.19433846 204.62610664 40.19433846 204.61528015 41.33837891 C204.58741395 43.71318504 204.52469882 46.08558453 204.4609375 48.45967102 C204.43584418 50.0748712 204.41303281 51.69010856 204.39257812 53.30537415 C204.33761397 57.25355922 204.25140277 61.19995791 204.1484375 65.14717102 C203.15481201 64.61172668 202.16118652 64.07628235 201.13745117 63.52461243 C199.80132385 62.80755156 198.46513912 62.09059767 197.12890625 61.37373352 C196.4778894 61.02254456 195.82687256 60.67135559 195.15612793 60.30952454 C162.43971228 42.78395619 129.8653352 41.04386446 93.45799065 40.84384799 C89.60498793 40.82172201 85.75202128 40.79446572 81.89904785 40.76779175 C74.62870251 40.71821949 67.35833676 40.67315175 60.08795214 40.62976938 C51.79992774 40.58009042 43.51193958 40.52528774 35.22395039 40.47008979 C18.19881306 40.35681547 1.17364189 40.2498614 -15.8515625 40.14717102 C-15.92598239 35.9662995 -15.98029068 31.78578372 -16.01635742 27.60444641 C-16.0314001 26.18347961 -16.05183954 24.76255889 -16.07788086 23.3417511 C-16.11446597 21.29370217 -16.13133347 19.24626952 -16.14453125 17.19795227 C-16.1602417 15.96730042 -16.17595215 14.73664856 -16.19213867 13.46870422 C-15.63449855 8.03021404 -12.88770944 4.6787996 -8.8515625 1.14717102 C-5.65496782 0.08163946 -3.36035667 0.01349714 0 0 Z " fill="#FFFFFF" transform="translate(36.8515625,381.8528289794922)"/>
<path d="M0 0 C1.80075701 -0.00202804 3.60151321 -0.00494549 5.40226746 -0.00869751 C9.13422645 -0.01307183 12.86596714 -0.00684033 16.59790039 0.00732422 C21.37477731 0.02457631 26.15115433 0.01444402 30.9280138 -0.00339317 C34.62806484 -0.01422679 38.32799679 -0.01078941 42.02805138 -0.0030098 C43.79067737 -0.00101497 45.55331431 -0.00344176 47.31592751 -0.01044846 C49.76795956 -0.01807392 52.21917163 -0.00645131 54.67114258 0.01025391 C55.39164795 0.00418121 56.11215332 -0.00189148 56.85449219 -0.00814819 C62.53793744 0.0635236 65.56874154 1.69912442 69.73046875 5.3984375 C73.04133829 9.1822884 72.75484178 13.17735722 72.69921875 17.9609375 C72.24471484 23.02540969 69.17812384 26.16298929 65.48046875 29.3984375 C62.26418294 30.47053277 59.90505313 30.54227468 56.5222168 30.57202148 C55.29210373 30.58551132 54.06199066 30.59900116 52.79460144 30.61289978 C52.13571615 30.61795973 51.47683086 30.62301968 50.79797935 30.62823296 C48.71230498 30.64476816 46.62680184 30.66802717 44.54121399 30.69313049 C38.60967784 30.76343895 32.67805913 30.82294605 26.74633789 30.87524414 C5.84671749 31.02626959 5.84671749 31.02626959 -15.0078125 32.296875 C-16.26335686 32.40901588 -16.26335686 32.40901588 -17.54426575 32.52342224 C-34.42666531 34.24988017 -50.99474675 39.83966006 -65.26953125 49.0234375 C-71.20155991 52.64229738 -77.19449246 54.02209357 -83.88696289 55.56396484 C-97.29633612 58.67283837 -109.04483356 63.90762745 -121.0703125 70.54296875 C-124.51953125 72.3984375 -124.51953125 72.3984375 -127.51953125 73.3984375 C-128.59076799 67.99897152 -128.50949481 63.97267368 -125.52734375 59.23046875 C-122.73622346 55.7542021 -119.63382496 52.58272582 -116.51953125 49.3984375 C-115.48536625 48.29056592 -114.45280378 47.18119618 -113.421875 46.0703125 C-105.88015029 38.09160827 -97.64068517 31.48627744 -88.51953125 25.3984375 C-87.61895996 24.79539795 -87.61895996 24.79539795 -86.70019531 24.18017578 C-60.6493896 7.02286892 -30.88369546 -0.12491989 0 0 Z " fill="#FFFFFF" transform="translate(398.51953125,301.6015625)"/>
<path d="M0 0 C0.7713176 -0.0049649 1.54263519 -0.00992981 2.33732605 -0.01504517 C4.89668676 -0.02967734 7.45598513 -0.03647659 10.01538086 -0.04199219 C11.33455914 -0.04623325 11.33455914 -0.04623325 12.6803875 -0.05056 C17.3500791 -0.06557038 22.01973977 -0.07478337 26.68945312 -0.07910156 C31.4665561 -0.08453615 36.24336674 -0.10845089 41.02037907 -0.13707352 C44.72953542 -0.1559184 48.43862511 -0.16091732 52.14782524 -0.16243744 C53.90530401 -0.16542427 55.66278278 -0.17331448 57.4202137 -0.18662262 C72.720351 -0.29404755 87.61205018 1.19903334 102.29272461 5.78613281 C103.11240723 6.03991699 103.93208984 6.29370117 104.77661133 6.55517578 C132.80425275 15.57378625 155.2752809 31.98260814 175.41772461 53.16113281 C176.6281543 54.40443359 176.6281543 54.40443359 177.86303711 55.67285156 C181.56287388 59.84452986 182.80499135 62.58315567 182.85522461 68.22363281 C182.74441593 69.87219466 182.61095722 71.52018922 182.41772461 73.16113281 C178.96174027 71.8861723 175.81432998 70.31077572 172.61157227 68.49609375 C160.64985315 61.77184145 148.04580801 56.98138346 134.60522461 54.22363281 C127.43856421 52.73825467 121.99011239 49.98437052 115.79272461 46.18066406 C101.96419465 37.90595342 85.8707579 33.47553157 69.89038086 32.04785156 C68.96588638 31.96478256 68.04139191 31.88171356 67.08888245 31.79612732 C51.23320938 30.52524634 35.25484002 30.77030154 19.35742188 30.70483398 C15.71387517 30.68895493 12.07066557 30.6587913 8.42729378 30.6200695 C7.05545681 30.60848511 5.68355999 30.60248973 4.31167412 30.60238838 C2.4087437 30.60219605 0.50584588 30.58240339 -1.39697266 30.56176758 C-2.47423111 30.55669693 -3.55148956 30.55162628 -4.66139221 30.54640198 C-9.82024492 29.86594105 -13.22393456 26.99923661 -16.58227539 23.16113281 C-18.31039542 17.97677273 -18.5270803 12.33418411 -16.33227539 7.28613281 C-11.23952491 1.10207865 -7.90207092 0.01213886 0 0 Z " fill="#FFFFFF" transform="translate(58.582275390625,301.8388671875)"/>
<path d="M0 0 C15.88975124 6.3559005 28.01555656 21.63556935 34.75 36.9375 C35.58174888 38.9260827 36.3162576 40.95579754 37 43 C37.26111572 43.72993164 37.52223145 44.45986328 37.79125977 45.21191406 C40.84706404 55.15530331 40.4878938 65.34721425 40.44604492 75.65625 C40.43746375 78.8886542 40.46648783 82.11932891 40.49804688 85.3515625 C40.4996575 87.41927031 40.49908401 89.48698123 40.49609375 91.5546875 C40.51294472 92.99387039 40.51294472 92.99387039 40.53013611 94.46212769 C40.46952245 100.28891282 39.82423331 103.53257984 36 108 C34.10546875 109.4609375 34.10546875 109.4609375 32.1875 110.375 C31.56230469 110.69210938 30.93710937 111.00921875 30.29296875 111.3359375 C19.65270189 114.41744579 10.04434611 108.34811537 0 105 C0 70.35 0 35.7 0 0 Z " fill="#FFFFFF" transform="translate(351,136)"/>
<path d="M0 0 C0 34.65 0 69.3 0 105 C-24.25432999 113.08477666 -24.25432999 113.08477666 -30.29296875 111.3359375 C-31.23076172 110.86027344 -31.23076172 110.86027344 -32.1875 110.375 C-32.82042969 110.07335937 -33.45335938 109.77171875 -34.10546875 109.4609375 C-37.50691881 106.83796364 -39.66643676 103.98938321 -40.37760925 99.7479248 C-40.52864171 97.04438955 -40.55432684 94.36785285 -40.53125 91.66015625 C-40.5350769 90.66100693 -40.53890381 89.6618576 -40.54284668 88.63243103 C-40.54556347 86.51853427 -40.53821868 84.40460375 -40.52148438 82.29077148 C-40.50027526 79.10386103 -40.52118865 75.9192578 -40.546875 72.73242188 C-40.56810234 58.12751078 -39.26222605 44.99773398 -32.4375 31.8125 C-32.10161865 31.15378906 -31.7657373 30.49507812 -31.41967773 29.81640625 C-26.44769958 20.56913172 -11.23099041 0 0 0 Z " fill="#FFFFFF" transform="translate(161,136)"/>
<path d="M0 0 C26.4 0 52.8 0 80 0 C76.65478156 20.07131063 69.73259524 34.27610378 56.8125 49.625 C56.32571777 50.20523926 55.83893555 50.78547852 55.33740234 51.38330078 C51.72865625 55.52450484 48.00622566 59.3767581 42.4375 60.53125 C35.46076557 60.44180469 32.03245714 59.01479234 26.98828125 54 C12.3797503 38.49915041 2.67371228 21.38969824 0 0 Z " fill="#FFFFFF" transform="translate(216,260)"/>
</svg>
